<?xml version="1.0" encoding="utf-8" standalone="no"?>
<!DOCTYPE svg PUBLIC "-//W3C//DTD SVG 1.1//EN"
  "http://www.w3.org/Graphics/SVG/1.1/DTD/svg11.dtd">
<svg xmlns:xlink="http://www.w3.org/1999/xlink" width="271.6125pt" height="286.6894pt" viewBox="0 0 271.6125 286.6894" xmlns="http://www.w3.org/2000/svg" version="1.1">
 <metadata>
  <rdf:RDF xmlns:dc="http://purl.org/dc/elements/1.1/" xmlns:cc="http://creativecommons.org/ns#" xmlns:rdf="http://www.w3.org/1999/02/22-rdf-syntax-ns#">
   <cc:Work>
    <dc:type rdf:resource="http://purl.org/dc/dcmitype/StillImage"/>
    <dc:date>2024-07-02T10:29:09.161000</dc:date>
    <dc:format>image/svg+xml</dc:format>
    <dc:creator>
     <cc:Agent>
      <dc:title>Matplotlib v3.7.5, https://matplotlib.org/</dc:title>
     </cc:Agent>
    </dc:creator>
   </cc:Work>
  </rdf:RDF>
 </metadata>
 <defs>
  <style type="text/css">*{stroke-linejoin: round; stroke-linecap: butt}</style>
 </defs>
 <g id="figure_1">
  <g id="patch_1">
   <path d="M 0 286.6894 
L 271.6125 286.6894 
L 271.6125 0 
L 0 0 
z
" style="fill: #ffffff"/>
  </g>
  <g id="axes_1">
   <g id="patch_2">
    <path d="M 41.2125 253.0044 
L 264.4125 253.0044 
L 264.4125 31.2444 
L 41.2125 31.2444 
z
" style="fill: #ffffff"/>
   </g>
   <g id="patch_3">
    <path d="M 51.357955 253.0044 
L 58.121591 253.0044 
L 58.121591 252.584519 
L 51.357955 252.584519 
z
" clip-path="url(#p703416670b)" style="fill: #1f77b4; fill-opacity: 0.5; stroke: #000000; stroke-width: 0.676364; stroke-linejoin: miter"/>
   </g>
   <g id="patch_4">
    <path d="M 58.121591 253.0044 
L 64.885227 253.0044 
L 64.885227 252.584519 
L 58.121591 252.584519 
z
" clip-path="url(#p703416670b)" style="fill: #1f77b4; fill-opacity: 0.5; stroke: #000000; stroke-width: 0.676364; stroke-linejoin: miter"/>
   </g>
   <g id="patch_5">
    <path d="M 64.885227 253.0044 
L 71.648864 253.0044 
L 71.648864 253.0044 
L 64.885227 253.0044 
z
" clip-path="url(#p703416670b)" style="fill: #1f77b4; fill-opacity: 0.5; stroke: #000000; stroke-width: 0.676364; stroke-linejoin: miter"/>
   </g>
   <g id="patch_6">
    <path d="M 71.648864 253.0044 
L 78.4125 253.0044 
L 78.4125 252.584519 
L 71.648864 252.584519 
z
" clip-path="url(#p703416670b)" style="fill: #1f77b4; fill-opacity: 0.5; stroke: #000000; stroke-width: 0.676364; stroke-linejoin: miter"/>
   </g>
   <g id="patch_7">
    <path d="M 78.4125 253.0044 
L 85.176136 253.0044 
L 85.176136 251.324877 
L 78.4125 251.324877 
z
" clip-path="url(#p703416670b)" style="fill: #1f77b4; fill-opacity: 0.5; stroke: #000000; stroke-width: 0.676364; stroke-linejoin: miter"/>
   </g>
   <g id="patch_8">
    <path d="M 85.176136 253.0044 
L 91.939773 253.0044 
L 91.939773 250.485116 
L 85.176136 250.485116 
z
" clip-path="url(#p703416670b)" style="fill: #1f77b4; fill-opacity: 0.5; stroke: #000000; stroke-width: 0.676364; stroke-linejoin: miter"/>
   </g>
   <g id="patch_9">
    <path d="M 91.939773 253.0044 
L 98.703409 253.0044 
L 98.703409 252.584519 
L 91.939773 252.584519 
z
" clip-path="url(#p703416670b)" style="fill: #1f77b4; fill-opacity: 0.5; stroke: #000000; stroke-width: 0.676364; stroke-linejoin: miter"/>
   </g>
   <g id="patch_10">
    <path d="M 98.703409 253.0044 
L 105.467045 253.0044 
L 105.467045 250.065235 
L 98.703409 250.065235 
z
" clip-path="url(#p703416670b)" style="fill: #1f77b4; fill-opacity: 0.5; stroke: #000000; stroke-width: 0.676364; stroke-linejoin: miter"/>
   </g>
   <g id="patch_11">
    <path d="M 105.467045 253.0044 
L 112.230682 253.0044 
L 112.230682 251.744758 
L 105.467045 251.744758 
z
" clip-path="url(#p703416670b)" style="fill: #1f77b4; fill-opacity: 0.5; stroke: #000000; stroke-width: 0.676364; stroke-linejoin: miter"/>
   </g>
   <g id="patch_12">
    <path d="M 112.230682 253.0044 
L 118.994318 253.0044 
L 118.994318 251.324877 
L 112.230682 251.324877 
z
" clip-path="url(#p703416670b)" style="fill: #1f77b4; fill-opacity: 0.5; stroke: #000000; stroke-width: 0.676364; stroke-linejoin: miter"/>
   </g>
   <g id="patch_13">
    <path d="M 118.994318 253.0044 
L 125.757955 253.0044 
L 125.757955 250.485116 
L 118.994318 250.485116 
z
" clip-path="url(#p703416670b)" style="fill: #1f77b4; fill-opacity: 0.5; stroke: #000000; stroke-width: 0.676364; stroke-linejoin: miter"/>
   </g>
   <g id="patch_14">
    <path d="M 125.757955 253.0044 
L 132.521591 253.0044 
L 132.521591 247.12607 
L 125.757955 247.12607 
z
" clip-path="url(#p703416670b)" style="fill: #1f77b4; fill-opacity: 0.5; stroke: #000000; stroke-width: 0.676364; stroke-linejoin: miter"/>
   </g>
   <g id="patch_15">
    <path d="M 132.521591 253.0044 
L 139.285227 253.0044 
L 139.285227 234.949529 
L 132.521591 234.949529 
z
" clip-path="url(#p703416670b)" style="fill: #1f77b4; fill-opacity: 0.5; stroke: #000000; stroke-width: 0.676364; stroke-linejoin: miter"/>
   </g>
   <g id="patch_16">
    <path d="M 139.285227 253.0044 
L 146.048864 253.0044 
L 146.048864 67.837004 
L 139.285227 67.837004 
z
" clip-path="url(#p703416670b)" style="fill: #1f77b4; fill-opacity: 0.5; stroke: #000000; stroke-width: 0.676364; stroke-linejoin: miter"/>
   </g>
   <g id="patch_17">
    <path d="M 146.048864 253.0044 
L 152.8125 253.0044 
L 152.8125 127.040185 
L 146.048864 127.040185 
z
" clip-path="url(#p703416670b)" style="fill: #1f77b4; fill-opacity: 0.5; stroke: #000000; stroke-width: 0.676364; stroke-linejoin: miter"/>
   </g>
   <g id="patch_18">
    <path d="M 152.8125 253.0044 
L 159.576136 253.0044 
L 159.576136 79.173784 
L 152.8125 79.173784 
z
" clip-path="url(#p703416670b)" style="fill: #1f77b4; fill-opacity: 0.5; stroke: #000000; stroke-width: 0.676364; stroke-linejoin: miter"/>
   </g>
   <g id="patch_19">
    <path d="M 159.576136 253.0044 
L 166.339773 253.0044 
L 166.339773 112.34436 
L 159.576136 112.34436 
z
" clip-path="url(#p703416670b)" style="fill: #1f77b4; fill-opacity: 0.5; stroke: #000000; stroke-width: 0.676364; stroke-linejoin: miter"/>
   </g>
   <g id="patch_20">
    <path d="M 166.339773 253.0044 
L 173.103409 253.0044 
L 173.103409 163.569808 
L 166.339773 163.569808 
z
" clip-path="url(#p703416670b)" style="fill: #1f77b4; fill-opacity: 0.5; stroke: #000000; stroke-width: 0.676364; stroke-linejoin: miter"/>
   </g>
   <g id="patch_21">
    <path d="M 173.103409 253.0044 
L 179.867045 253.0044 
L 179.867045 179.945155 
L 173.103409 179.945155 
z
" clip-path="url(#p703416670b)" style="fill: #1f77b4; fill-opacity: 0.5; stroke: #000000; stroke-width: 0.676364; stroke-linejoin: miter"/>
   </g>
   <g id="patch_22">
    <path d="M 179.867045 253.0044 
L 186.630682 253.0044 
L 186.630682 171.547541 
L 179.867045 171.547541 
z
" clip-path="url(#p703416670b)" style="fill: #1f77b4; fill-opacity: 0.5; stroke: #000000; stroke-width: 0.676364; stroke-linejoin: miter"/>
   </g>
   <g id="patch_23">
    <path d="M 186.630682 253.0044 
L 193.394318 253.0044 
L 193.394318 172.387303 
L 186.630682 172.387303 
z
" clip-path="url(#p703416670b)" style="fill: #1f77b4; fill-opacity: 0.5; stroke: #000000; stroke-width: 0.676364; stroke-linejoin: miter"/>
   </g>
   <g id="patch_24">
    <path d="M 193.394318 253.0044 
L 200.157955 253.0044 
L 200.157955 159.790881 
L 193.394318 159.790881 
z
" clip-path="url(#p703416670b)" style="fill: #1f77b4; fill-opacity: 0.5; stroke: #000000; stroke-width: 0.676364; stroke-linejoin: miter"/>
   </g>
   <g id="patch_25">
    <path d="M 200.157955 253.0044 
L 206.921591 253.0044 
L 206.921591 173.646945 
L 200.157955 173.646945 
z
" clip-path="url(#p703416670b)" style="fill: #1f77b4; fill-opacity: 0.5; stroke: #000000; stroke-width: 0.676364; stroke-linejoin: miter"/>
   </g>
   <g id="patch_26">
    <path d="M 206.921591 253.0044 
L 213.685227 253.0044 
L 213.685227 194.640981 
L 206.921591 194.640981 
z
" clip-path="url(#p703416670b)" style="fill: #1f77b4; fill-opacity: 0.5; stroke: #000000; stroke-width: 0.676364; stroke-linejoin: miter"/>
   </g>
   <g id="patch_27">
    <path d="M 213.685227 253.0044 
L 220.448864 253.0044 
L 220.448864 208.077163 
L 213.685227 208.077163 
z
" clip-path="url(#p703416670b)" style="fill: #1f77b4; fill-opacity: 0.5; stroke: #000000; stroke-width: 0.676364; stroke-linejoin: miter"/>
   </g>
   <g id="patch_28">
    <path d="M 220.448864 253.0044 
L 227.2125 253.0044 
L 227.2125 218.574181 
L 220.448864 218.574181 
z
" clip-path="url(#p703416670b)" style="fill: #1f77b4; fill-opacity: 0.5; stroke: #000000; stroke-width: 0.676364; stroke-linejoin: miter"/>
   </g>
   <g id="patch_29">
    <path d="M 227.2125 253.0044 
L 233.976136 253.0044 
L 233.976136 228.651318 
L 227.2125 228.651318 
z
" clip-path="url(#p703416670b)" style="fill: #1f77b4; fill-opacity: 0.5; stroke: #000000; stroke-width: 0.676364; stroke-linejoin: miter"/>
   </g>
   <g id="patch_30">
    <path d="M 233.976136 253.0044 
L 240.739773 253.0044 
L 240.739773 238.728456 
L 233.976136 238.728456 
z
" clip-path="url(#p703416670b)" style="fill: #1f77b4; fill-opacity: 0.5; stroke: #000000; stroke-width: 0.676364; stroke-linejoin: miter"/>
   </g>
   <g id="patch_31">
    <path d="M 240.739773 253.0044 
L 247.503409 253.0044 
L 247.503409 247.545951 
L 240.739773 247.545951 
z
" clip-path="url(#p703416670b)" style="fill: #1f77b4; fill-opacity: 0.5; stroke: #000000; stroke-width: 0.676364; stroke-linejoin: miter"/>
   </g>
   <g id="patch_32">
    <path d="M 247.503409 253.0044 
L 254.267045 253.0044 
L 254.267045 250.485116 
L 247.503409 250.485116 
z
" clip-path="url(#p703416670b)" style="fill: #1f77b4; fill-opacity: 0.5; stroke: #000000; stroke-width: 0.676364; stroke-linejoin: miter"/>
   </g>
   <g id="patch_33">
    <path d="M 51.357955 253.0044 
L 58.121591 253.0044 
L 58.121591 253.0044 
L 51.357955 253.0044 
z
" clip-path="url(#p703416670b)" style="fill: #ff7f0e; fill-opacity: 0.5; stroke: #000000; stroke-width: 0.676364; stroke-linejoin: miter"/>
   </g>
   <g id="patch_34">
    <path d="M 58.121591 253.0044 
L 64.885227 253.0044 
L 64.885227 253.0044 
L 58.121591 253.0044 
z
" clip-path="url(#p703416670b)" style="fill: #ff7f0e; fill-opacity: 0.5; stroke: #000000; stroke-width: 0.676364; stroke-linejoin: miter"/>
   </g>
   <g id="patch_35">
    <path d="M 64.885227 253.0044 
L 71.648864 253.0044 
L 71.648864 253.0044 
L 64.885227 253.0044 
z
" clip-path="url(#p703416670b)" style="fill: #ff7f0e; fill-opacity: 0.5; stroke: #000000; stroke-width: 0.676364; stroke-linejoin: miter"/>
   </g>
   <g id="patch_36">
    <path d="M 71.648864 253.0044 
L 78.4125 253.0044 
L 78.4125 253.0044 
L 71.648864 253.0044 
z
" clip-path="url(#p703416670b)" style="fill: #ff7f0e; fill-opacity: 0.5; stroke: #000000; stroke-width: 0.676364; stroke-linejoin: miter"/>
   </g>
   <g id="patch_37">
    <path d="M 78.4125 253.0044 
L 85.176136 253.0044 
L 85.176136 253.0044 
L 78.4125 253.0044 
z
" clip-path="url(#p703416670b)" style="fill: #ff7f0e; fill-opacity: 0.5; stroke: #000000; stroke-width: 0.676364; stroke-linejoin: miter"/>
   </g>
   <g id="patch_38">
    <path d="M 85.176136 253.0044 
L 91.939773 253.0044 
L 91.939773 253.0044 
L 85.176136 253.0044 
z
" clip-path="url(#p703416670b)" style="fill: #ff7f0e; fill-opacity: 0.5; stroke: #000000; stroke-width: 0.676364; stroke-linejoin: miter"/>
   </g>
   <g id="patch_39">
    <path d="M 91.939773 253.0044 
L 98.703409 253.0044 
L 98.703409 252.584519 
L 91.939773 252.584519 
z
" clip-path="url(#p703416670b)" style="fill: #ff7f0e; fill-opacity: 0.5; stroke: #000000; stroke-width: 0.676364; stroke-linejoin: miter"/>
   </g>
   <g id="patch_40">
    <path d="M 98.703409 253.0044 
L 105.467045 253.0044 
L 105.467045 253.0044 
L 98.703409 253.0044 
z
" clip-path="url(#p703416670b)" style="fill: #ff7f0e; fill-opacity: 0.5; stroke: #000000; stroke-width: 0.676364; stroke-linejoin: miter"/>
   </g>
   <g id="patch_41">
    <path d="M 105.467045 253.0044 
L 112.230682 253.0044 
L 112.230682 253.0044 
L 105.467045 253.0044 
z
" clip-path="url(#p703416670b)" style="fill: #ff7f0e; fill-opacity: 0.5; stroke: #000000; stroke-width: 0.676364; stroke-linejoin: miter"/>
   </g>
   <g id="patch_42">
    <path d="M 112.230682 253.0044 
L 118.994318 253.0044 
L 118.994318 253.0044 
L 112.230682 253.0044 
z
" clip-path="url(#p703416670b)" style="fill: #ff7f0e; fill-opacity: 0.5; stroke: #000000; stroke-width: 0.676364; stroke-linejoin: miter"/>
   </g>
   <g id="patch_43">
    <path d="M 118.994318 253.0044 
L 125.757955 253.0044 
L 125.757955 250.904996 
L 118.994318 250.904996 
z
" clip-path="url(#p703416670b)" style="fill: #ff7f0e; fill-opacity: 0.5; stroke: #000000; stroke-width: 0.676364; stroke-linejoin: miter"/>
   </g>
   <g id="patch_44">
    <path d="M 125.757955 253.0044 
L 132.521591 253.0044 
L 132.521591 250.904996 
L 125.757955 250.904996 
z
" clip-path="url(#p703416670b)" style="fill: #ff7f0e; fill-opacity: 0.5; stroke: #000000; stroke-width: 0.676364; stroke-linejoin: miter"/>
   </g>
   <g id="patch_45">
    <path d="M 132.521591 253.0044 
L 139.285227 253.0044 
L 139.285227 233.689887 
L 132.521591 233.689887 
z
" clip-path="url(#p703416670b)" style="fill: #ff7f0e; fill-opacity: 0.5; stroke: #000000; stroke-width: 0.676364; stroke-linejoin: miter"/>
   </g>
   <g id="patch_46">
    <path d="M 139.285227 253.0044 
L 146.048864 253.0044 
L 146.048864 41.8044 
L 139.285227 41.8044 
z
" clip-path="url(#p703416670b)" style="fill: #ff7f0e; fill-opacity: 0.5; stroke: #000000; stroke-width: 0.676364; stroke-linejoin: miter"/>
   </g>
   <g id="patch_47">
    <path d="M 146.048864 253.0044 
L 152.8125 253.0044 
L 152.8125 151.393267 
L 146.048864 151.393267 
z
" clip-path="url(#p703416670b)" style="fill: #ff7f0e; fill-opacity: 0.5; stroke: #000000; stroke-width: 0.676364; stroke-linejoin: miter"/>
   </g>
   <g id="patch_48">
    <path d="M 152.8125 253.0044 
L 159.576136 253.0044 
L 159.576136 112.34436 
L 152.8125 112.34436 
z
" clip-path="url(#p703416670b)" style="fill: #ff7f0e; fill-opacity: 0.5; stroke: #000000; stroke-width: 0.676364; stroke-linejoin: miter"/>
   </g>
   <g id="patch_49">
    <path d="M 159.576136 253.0044 
L 166.339773 253.0044 
L 166.339773 130.399231 
L 159.576136 130.399231 
z
" clip-path="url(#p703416670b)" style="fill: #ff7f0e; fill-opacity: 0.5; stroke: #000000; stroke-width: 0.676364; stroke-linejoin: miter"/>
   </g>
   <g id="patch_50">
    <path d="M 166.339773 253.0044 
L 173.103409 253.0044 
L 173.103409 181.624678 
L 166.339773 181.624678 
z
" clip-path="url(#p703416670b)" style="fill: #ff7f0e; fill-opacity: 0.5; stroke: #000000; stroke-width: 0.676364; stroke-linejoin: miter"/>
   </g>
   <g id="patch_51">
    <path d="M 173.103409 253.0044 
L 179.867045 253.0044 
L 179.867045 200.939191 
L 173.103409 200.939191 
z
" clip-path="url(#p703416670b)" style="fill: #ff7f0e; fill-opacity: 0.5; stroke: #000000; stroke-width: 0.676364; stroke-linejoin: miter"/>
   </g>
   <g id="patch_52">
    <path d="M 179.867045 253.0044 
L 186.630682 253.0044 
L 186.630682 200.519311 
L 179.867045 200.519311 
z
" clip-path="url(#p703416670b)" style="fill: #ff7f0e; fill-opacity: 0.5; stroke: #000000; stroke-width: 0.676364; stroke-linejoin: miter"/>
   </g>
   <g id="patch_53">
    <path d="M 186.630682 253.0044 
L 193.394318 253.0044 
L 193.394318 190.442173 
L 186.630682 190.442173 
z
" clip-path="url(#p703416670b)" style="fill: #ff7f0e; fill-opacity: 0.5; stroke: #000000; stroke-width: 0.676364; stroke-linejoin: miter"/>
   </g>
   <g id="patch_54">
    <path d="M 193.394318 253.0044 
L 200.157955 253.0044 
L 200.157955 169.448138 
L 193.394318 169.448138 
z
" clip-path="url(#p703416670b)" style="fill: #ff7f0e; fill-opacity: 0.5; stroke: #000000; stroke-width: 0.676364; stroke-linejoin: miter"/>
   </g>
   <g id="patch_55">
    <path d="M 200.157955 253.0044 
L 206.921591 253.0044 
L 206.921591 184.983724 
L 200.157955 184.983724 
z
" clip-path="url(#p703416670b)" style="fill: #ff7f0e; fill-opacity: 0.5; stroke: #000000; stroke-width: 0.676364; stroke-linejoin: miter"/>
   </g>
   <g id="patch_56">
    <path d="M 206.921591 253.0044 
L 213.685227 253.0044 
L 213.685227 175.746348 
L 206.921591 175.746348 
z
" clip-path="url(#p703416670b)" style="fill: #ff7f0e; fill-opacity: 0.5; stroke: #000000; stroke-width: 0.676364; stroke-linejoin: miter"/>
   </g>
   <g id="patch_57">
    <path d="M 213.685227 253.0044 
L 220.448864 253.0044 
L 220.448864 189.182531 
L 213.685227 189.182531 
z
" clip-path="url(#p703416670b)" style="fill: #ff7f0e; fill-opacity: 0.5; stroke: #000000; stroke-width: 0.676364; stroke-linejoin: miter"/>
   </g>
   <g id="patch_58">
    <path d="M 220.448864 253.0044 
L 227.2125 253.0044 
L 227.2125 181.624678 
L 220.448864 181.624678 
z
" clip-path="url(#p703416670b)" style="fill: #ff7f0e; fill-opacity: 0.5; stroke: #000000; stroke-width: 0.676364; stroke-linejoin: miter"/>
   </g>
   <g id="patch_59">
    <path d="M 227.2125 253.0044 
L 233.976136 253.0044 
L 233.976136 179.525275 
L 227.2125 179.525275 
z
" clip-path="url(#p703416670b)" style="fill: #ff7f0e; fill-opacity: 0.5; stroke: #000000; stroke-width: 0.676364; stroke-linejoin: miter"/>
   </g>
   <g id="patch_60">
    <path d="M 233.976136 253.0044 
L 240.739773 253.0044 
L 240.739773 210.176567 
L 233.976136 210.176567 
z
" clip-path="url(#p703416670b)" style="fill: #ff7f0e; fill-opacity: 0.5; stroke: #000000; stroke-width: 0.676364; stroke-linejoin: miter"/>
   </g>
   <g id="patch_61">
    <path d="M 240.739773 253.0044 
L 247.503409 253.0044 
L 247.503409 232.430245 
L 240.739773 232.430245 
z
" clip-path="url(#p703416670b)" style="fill: #ff7f0e; fill-opacity: 0.5; stroke: #000000; stroke-width: 0.676364; stroke-linejoin: miter"/>
   </g>
   <g id="patch_62">
    <path d="M 247.503409 253.0044 
L 254.267045 253.0044 
L 254.267045 247.12607 
L 247.503409 247.12607 
z
" clip-path="url(#p703416670b)" style="fill: #ff7f0e; fill-opacity: 0.5; stroke: #000000; stroke-width: 0.676364; stroke-linejoin: miter"/>
   </g>
   <g id="matplotlib.axis_1">
    <g id="xtick_1">
     <g id="line2d_1">
      <defs>
       <path id="mdad1b27c43" d="M 0 0 
L 0 3.5 
" style="stroke: #000000; stroke-width: 0.8"/>
      </defs>
      <g>
       <use xlink:href="#mdad1b27c43" x="63.130688" y="253.0044" style="stroke: #000000; stroke-width: 0.8"/>
      </g>
     </g>
     <g id="text_1">
      <!-- −10 -->
      <g transform="translate(54.688813 266.08315) scale(0.08 -0.08)">
       <defs>
        <path id="DejaVuSerif-2212" d="M 678 2259 
L 4684 2259 
L 4684 1753 
L 678 1753 
L 678 2259 
z
" transform="scale(0.015625)"/>
        <path id="DejaVuSerif-31" d="M 909 0 
L 909 331 
L 1722 331 
L 1722 4213 
L 781 3603 
L 781 4013 
L 1919 4750 
L 2350 4750 
L 2350 331 
L 3163 331 
L 3163 0 
L 909 0 
z
" transform="scale(0.015625)"/>
        <path id="DejaVuSerif-30" d="M 2034 219 
Q 2513 219 2750 744 
Q 2988 1269 2988 2328 
Q 2988 3391 2750 3916 
Q 2513 4441 2034 4441 
Q 1556 4441 1318 3916 
Q 1081 3391 1081 2328 
Q 1081 1269 1318 744 
Q 1556 219 2034 219 
z
M 2034 -91 
Q 1275 -91 848 546 
Q 422 1184 422 2328 
Q 422 3475 848 4112 
Q 1275 4750 2034 4750 
Q 2797 4750 3222 4112 
Q 3647 3475 3647 2328 
Q 3647 1184 3222 546 
Q 2797 -91 2034 -91 
z
" transform="scale(0.015625)"/>
       </defs>
       <use xlink:href="#DejaVuSerif-2212"/>
       <use xlink:href="#DejaVuSerif-31" x="83.789062"/>
       <use xlink:href="#DejaVuSerif-30" x="147.412109"/>
      </g>
     </g>
    </g>
    <g id="xtick_2">
     <g id="line2d_2">
      <g>
       <use xlink:href="#mdad1b27c43" x="88.557428" y="253.0044" style="stroke: #000000; stroke-width: 0.8"/>
      </g>
     </g>
     <g id="text_2">
      <!-- −5 -->
      <g transform="translate(82.660553 266.08315) scale(0.08 -0.08)">
       <defs>
        <path id="DejaVuSerif-35" d="M 3219 4666 
L 3219 4153 
L 1081 4153 
L 1081 2816 
Q 1244 2928 1461 2984 
Q 1678 3041 1947 3041 
Q 2703 3041 3140 2622 
Q 3578 2203 3578 1478 
Q 3578 738 3136 323 
Q 2694 -91 1894 -91 
Q 1572 -91 1234 -12 
Q 897 66 544 225 
L 544 1131 
L 897 1131 
Q 925 688 1179 453 
Q 1434 219 1894 219 
Q 2388 219 2653 544 
Q 2919 869 2919 1478 
Q 2919 2084 2655 2407 
Q 2391 2731 1894 2731 
Q 1613 2731 1398 2631 
Q 1184 2531 1019 2322 
L 750 2322 
L 750 4666 
L 3219 4666 
z
" transform="scale(0.015625)"/>
       </defs>
       <use xlink:href="#DejaVuSerif-2212"/>
       <use xlink:href="#DejaVuSerif-35" x="83.789062"/>
      </g>
     </g>
    </g>
    <g id="xtick_3">
     <g id="line2d_3">
      <g>
       <use xlink:href="#mdad1b27c43" x="113.984167" y="253.0044" style="stroke: #000000; stroke-width: 0.8"/>
      </g>
     </g>
     <g id="text_3">
      <!-- 0 -->
      <g transform="translate(111.439167 266.08315) scale(0.08 -0.08)">
       <use xlink:href="#DejaVuSerif-30"/>
      </g>
     </g>
    </g>
    <g id="xtick_4">
     <g id="line2d_4">
      <g>
       <use xlink:href="#mdad1b27c43" x="139.410907" y="253.0044" style="stroke: #000000; stroke-width: 0.8"/>
      </g>
     </g>
     <g id="text_4">
      <!-- 5 -->
      <g transform="translate(136.865907 266.08315) scale(0.08 -0.08)">
       <use xlink:href="#DejaVuSerif-35"/>
      </g>
     </g>
    </g>
    <g id="xtick_5">
     <g id="line2d_5">
      <g>
       <use xlink:href="#mdad1b27c43" x="164.837647" y="253.0044" style="stroke: #000000; stroke-width: 0.8"/>
      </g>
     </g>
     <g id="text_5">
      <!-- 10 -->
      <g transform="translate(159.747647 266.08315) scale(0.08 -0.08)">
       <use xlink:href="#DejaVuSerif-31"/>
       <use xlink:href="#DejaVuSerif-30" x="63.623047"/>
      </g>
     </g>
    </g>
    <g id="xtick_6">
     <g id="line2d_6">
      <g>
       <use xlink:href="#mdad1b27c43" x="190.264387" y="253.0044" style="stroke: #000000; stroke-width: 0.8"/>
      </g>
     </g>
     <g id="text_6">
      <!-- 15 -->
      <g transform="translate(185.174387 266.08315) scale(0.08 -0.08)">
       <use xlink:href="#DejaVuSerif-31"/>
       <use xlink:href="#DejaVuSerif-35" x="63.623047"/>
      </g>
     </g>
    </g>
    <g id="xtick_7">
     <g id="line2d_7">
      <g>
       <use xlink:href="#mdad1b27c43" x="215.691126" y="253.0044" style="stroke: #000000; stroke-width: 0.8"/>
      </g>
     </g>
     <g id="text_7">
      <!-- 20 -->
      <g transform="translate(210.601126 266.08315) scale(0.08 -0.08)">
       <defs>
        <path id="DejaVuSerif-32" d="M 819 3553 
L 469 3553 
L 469 4384 
Q 803 4563 1142 4656 
Q 1481 4750 1806 4750 
Q 2534 4750 2956 4397 
Q 3378 4044 3378 3438 
Q 3378 2753 2422 1800 
Q 2347 1728 2309 1691 
L 1131 513 
L 3078 513 
L 3078 1088 
L 3444 1088 
L 3444 0 
L 434 0 
L 434 341 
L 1850 1753 
Q 2319 2222 2519 2614 
Q 2719 3006 2719 3438 
Q 2719 3909 2473 4175 
Q 2228 4441 1797 4441 
Q 1350 4441 1106 4219 
Q 863 3997 819 3553 
z
" transform="scale(0.015625)"/>
       </defs>
       <use xlink:href="#DejaVuSerif-32"/>
       <use xlink:href="#DejaVuSerif-30" x="63.623047"/>
      </g>
     </g>
    </g>
    <g id="xtick_8">
     <g id="line2d_8">
      <g>
       <use xlink:href="#mdad1b27c43" x="241.117866" y="253.0044" style="stroke: #000000; stroke-width: 0.8"/>
      </g>
     </g>
     <g id="text_8">
      <!-- 25 -->
      <g transform="translate(236.027866 266.08315) scale(0.08 -0.08)">
       <use xlink:href="#DejaVuSerif-32"/>
       <use xlink:href="#DejaVuSerif-35" x="63.623047"/>
      </g>
     </g>
    </g>
    <g id="text_9">
     <!-- SNR [dB] -->
     <g transform="translate(133.668125 277.82565) scale(0.08 -0.08)">
      <defs>
       <path id="DejaVuSerif-53" d="M 594 225 
L 594 1288 
L 953 1284 
Q 969 753 1261 498 
Q 1553 244 2150 244 
Q 2706 244 2998 464 
Q 3291 684 3291 1106 
Q 3291 1444 3114 1625 
Q 2938 1806 2369 1978 
L 1753 2163 
Q 1084 2366 811 2669 
Q 538 2972 538 3500 
Q 538 4094 959 4422 
Q 1381 4750 2144 4750 
Q 2469 4750 2856 4679 
Q 3244 4609 3681 4475 
L 3681 3481 
L 3328 3481 
Q 3275 3975 2998 4195 
Q 2722 4416 2156 4416 
Q 1663 4416 1405 4214 
Q 1147 4013 1147 3628 
Q 1147 3294 1340 3103 
Q 1534 2913 2163 2725 
L 2741 2553 
Q 3375 2363 3645 2067 
Q 3916 1772 3916 1275 
Q 3916 597 3481 253 
Q 3047 -91 2188 -91 
Q 1803 -91 1404 -12 
Q 1006 66 594 225 
z
" transform="scale(0.015625)"/>
       <path id="DejaVuSerif-4e" d="M 313 0 
L 313 331 
L 941 331 
L 941 4331 
L 313 4331 
L 313 4666 
L 1509 4666 
L 4306 984 
L 4306 4331 
L 3681 4331 
L 3681 4666 
L 5319 4666 
L 5319 4331 
L 4691 4331 
L 4691 -91 
L 4313 -91 
L 1325 3841 
L 1325 331 
L 1953 331 
L 1953 0 
L 313 0 
z
" transform="scale(0.015625)"/>
       <path id="DejaVuSerif-52" d="M 3066 2316 
Q 3284 2256 3442 2114 
Q 3600 1972 3725 1716 
L 4403 331 
L 4972 331 
L 4972 0 
L 3872 0 
L 3144 1484 
Q 2934 1916 2759 2042 
Q 2584 2169 2278 2169 
L 1581 2169 
L 1581 331 
L 2241 331 
L 2241 0 
L 353 0 
L 353 331 
L 947 331 
L 947 4331 
L 353 4331 
L 353 4666 
L 2719 4666 
Q 3400 4666 3770 4341 
Q 4141 4016 4141 3419 
Q 4141 2938 3870 2661 
Q 3600 2384 3066 2316 
z
M 1581 2503 
L 2503 2503 
Q 2975 2503 3200 2726 
Q 3425 2950 3425 3419 
Q 3425 3888 3200 4109 
Q 2975 4331 2503 4331 
L 1581 4331 
L 1581 2503 
z
" transform="scale(0.015625)"/>
       <path id="DejaVuSerif-20" transform="scale(0.015625)"/>
       <path id="DejaVuSerif-5b" d="M 550 4863 
L 2003 4863 
L 2003 4531 
L 1147 4531 
L 1147 -513 
L 2003 -513 
L 2003 -844 
L 550 -844 
L 550 4863 
z
" transform="scale(0.015625)"/>
       <path id="DejaVuSerif-64" d="M 3359 331 
L 3909 331 
L 3909 0 
L 2784 0 
L 2784 519 
Q 2616 206 2355 57 
Q 2094 -91 1709 -91 
Q 1097 -91 708 395 
Q 319 881 319 1663 
Q 319 2444 706 2928 
Q 1094 3413 1709 3413 
Q 2094 3413 2355 3264 
Q 2616 3116 2784 2803 
L 2784 4531 
L 2241 4531 
L 2241 4863 
L 3359 4863 
L 3359 331 
z
M 2784 1497 
L 2784 1825 
Q 2784 2422 2554 2737 
Q 2325 3053 1888 3053 
Q 1444 3053 1217 2703 
Q 991 2353 991 1663 
Q 991 975 1217 622 
Q 1444 269 1888 269 
Q 2325 269 2554 583 
Q 2784 897 2784 1497 
z
" transform="scale(0.015625)"/>
       <path id="DejaVuSerif-42" d="M 1581 331 
L 2516 331 
Q 3078 331 3337 575 
Q 3597 819 3597 1350 
Q 3597 1878 3339 2120 
Q 3081 2363 2516 2363 
L 1581 2363 
L 1581 331 
z
M 1581 2694 
L 2375 2694 
Q 2888 2694 3123 2891 
Q 3359 3088 3359 3513 
Q 3359 3941 3123 4136 
Q 2888 4331 2375 4331 
L 1581 4331 
L 1581 2694 
z
M 353 0 
L 353 331 
L 947 331 
L 947 4331 
L 353 4331 
L 353 4666 
L 2656 4666 
Q 3363 4666 3720 4377 
Q 4078 4088 4078 3513 
Q 4078 3097 3829 2850 
Q 3581 2603 3103 2547 
Q 3697 2472 4005 2167 
Q 4313 1863 4313 1350 
Q 4313 656 3875 328 
Q 3438 0 2509 0 
L 353 0 
z
" transform="scale(0.015625)"/>
       <path id="DejaVuSerif-5d" d="M 1947 4863 
L 1947 -844 
L 494 -844 
L 494 -513 
L 1350 -513 
L 1350 4531 
L 494 4531 
L 494 4863 
L 1947 4863 
z
" transform="scale(0.015625)"/>
      </defs>
      <use xlink:href="#DejaVuSerif-53"/>
      <use xlink:href="#DejaVuSerif-4e" x="68.505859"/>
      <use xlink:href="#DejaVuSerif-52" x="156.005859"/>
      <use xlink:href="#DejaVuSerif-20" x="231.298828"/>
      <use xlink:href="#DejaVuSerif-5b" x="263.085938"/>
      <use xlink:href="#DejaVuSerif-64" x="302.099609"/>
      <use xlink:href="#DejaVuSerif-42" x="366.113281"/>
      <use xlink:href="#DejaVuSerif-5d" x="439.599609"/>
     </g>
    </g>
   </g>
   <g id="matplotlib.axis_2">
    <g id="ytick_1">
     <g id="line2d_9">
      <defs>
       <path id="m9f95379bbc" d="M 0 0 
L -3.5 0 
" style="stroke: #000000; stroke-width: 0.8"/>
      </defs>
      <g>
       <use xlink:href="#m9f95379bbc" x="41.2125" y="253.0044" style="stroke: #000000; stroke-width: 0.8"/>
      </g>
     </g>
     <g id="text_10">
      <!-- 0 -->
      <g transform="translate(29.1225 256.043775) scale(0.08 -0.08)">
       <use xlink:href="#DejaVuSerif-30"/>
      </g>
     </g>
    </g>
    <g id="ytick_2">
     <g id="line2d_10">
      <g>
       <use xlink:href="#m9f95379bbc" x="41.2125" y="211.016328" style="stroke: #000000; stroke-width: 0.8"/>
      </g>
     </g>
     <g id="text_11">
      <!-- 100 -->
      <g transform="translate(18.9425 214.055703) scale(0.08 -0.08)">
       <use xlink:href="#DejaVuSerif-31"/>
       <use xlink:href="#DejaVuSerif-30" x="63.623047"/>
       <use xlink:href="#DejaVuSerif-30" x="127.246094"/>
      </g>
     </g>
    </g>
    <g id="ytick_3">
     <g id="line2d_11">
      <g>
       <use xlink:href="#m9f95379bbc" x="41.2125" y="169.028257" style="stroke: #000000; stroke-width: 0.8"/>
      </g>
     </g>
     <g id="text_12">
      <!-- 200 -->
      <g transform="translate(18.9425 172.067632) scale(0.08 -0.08)">
       <use xlink:href="#DejaVuSerif-32"/>
       <use xlink:href="#DejaVuSerif-30" x="63.623047"/>
       <use xlink:href="#DejaVuSerif-30" x="127.246094"/>
      </g>
     </g>
    </g>
    <g id="ytick_4">
     <g id="line2d_12">
      <g>
       <use xlink:href="#m9f95379bbc" x="41.2125" y="127.040185" style="stroke: #000000; stroke-width: 0.8"/>
      </g>
     </g>
     <g id="text_13">
      <!-- 300 -->
      <g transform="translate(18.9425 130.07956) scale(0.08 -0.08)">
       <defs>
        <path id="DejaVuSerif-33" d="M 622 4469 
Q 988 4606 1323 4678 
Q 1659 4750 1953 4750 
Q 2638 4750 3022 4454 
Q 3406 4159 3406 3634 
Q 3406 3213 3140 2930 
Q 2875 2647 2388 2547 
Q 2963 2466 3280 2130 
Q 3597 1794 3597 1259 
Q 3597 606 3158 257 
Q 2719 -91 1894 -91 
Q 1528 -91 1179 -12 
Q 831 66 488 225 
L 488 1131 
L 838 1131 
Q 869 681 1141 450 
Q 1413 219 1906 219 
Q 2384 219 2661 495 
Q 2938 772 2938 1253 
Q 2938 1803 2653 2086 
Q 2369 2369 1819 2369 
L 1522 2369 
L 1522 2688 
L 1678 2688 
Q 2225 2688 2498 2914 
Q 2772 3141 2772 3597 
Q 2772 4006 2547 4223 
Q 2322 4441 1900 4441 
Q 1478 4441 1245 4241 
Q 1013 4041 972 3647 
L 622 3647 
L 622 4469 
z
" transform="scale(0.015625)"/>
       </defs>
       <use xlink:href="#DejaVuSerif-33"/>
       <use xlink:href="#DejaVuSerif-30" x="63.623047"/>
       <use xlink:href="#DejaVuSerif-30" x="127.246094"/>
      </g>
     </g>
    </g>
    <g id="ytick_5">
     <g id="line2d_13">
      <g>
       <use xlink:href="#m9f95379bbc" x="41.2125" y="85.052114" style="stroke: #000000; stroke-width: 0.8"/>
      </g>
     </g>
     <g id="text_14">
      <!-- 400 -->
      <g transform="translate(18.9425 88.091489) scale(0.08 -0.08)">
       <defs>
        <path id="DejaVuSerif-34" d="M 2234 1581 
L 2234 4063 
L 641 1581 
L 2234 1581 
z
M 3609 0 
L 1484 0 
L 1484 331 
L 2234 331 
L 2234 1247 
L 197 1247 
L 197 1588 
L 2241 4750 
L 2859 4750 
L 2859 1581 
L 3750 1581 
L 3750 1247 
L 2859 1247 
L 2859 331 
L 3609 331 
L 3609 0 
z
" transform="scale(0.015625)"/>
       </defs>
       <use xlink:href="#DejaVuSerif-34"/>
       <use xlink:href="#DejaVuSerif-30" x="63.623047"/>
       <use xlink:href="#DejaVuSerif-30" x="127.246094"/>
      </g>
     </g>
    </g>
    <g id="ytick_6">
     <g id="line2d_14">
      <g>
       <use xlink:href="#m9f95379bbc" x="41.2125" y="43.064042" style="stroke: #000000; stroke-width: 0.8"/>
      </g>
     </g>
     <g id="text_15">
      <!-- 500 -->
      <g transform="translate(18.9425 46.103417) scale(0.08 -0.08)">
       <use xlink:href="#DejaVuSerif-35"/>
       <use xlink:href="#DejaVuSerif-30" x="63.623047"/>
       <use xlink:href="#DejaVuSerif-30" x="127.246094"/>
      </g>
     </g>
    </g>
    <g id="text_16">
     <!-- Number of speech samples -->
     <g transform="translate(13.27875 197.191275) rotate(-90) scale(0.08 -0.08)">
      <defs>
       <path id="DejaVuSerif-75" d="M 2266 3322 
L 3341 3322 
L 3341 331 
L 3884 331 
L 3884 0 
L 2766 0 
L 2766 588 
Q 2606 256 2353 82 
Q 2100 -91 1766 -91 
Q 1213 -91 952 223 
Q 691 538 691 1209 
L 691 2988 
L 172 2988 
L 172 3322 
L 1269 3322 
L 1269 1388 
Q 1269 781 1417 556 
Q 1566 331 1947 331 
Q 2347 331 2556 625 
Q 2766 919 2766 1478 
L 2766 2988 
L 2266 2988 
L 2266 3322 
z
" transform="scale(0.015625)"/>
       <path id="DejaVuSerif-6d" d="M 3316 2675 
Q 3481 3041 3739 3227 
Q 3997 3413 4341 3413 
Q 4863 3413 5119 3089 
Q 5375 2766 5375 2113 
L 5375 331 
L 5894 331 
L 5894 0 
L 4300 0 
L 4300 331 
L 4800 331 
L 4800 2047 
Q 4800 2556 4650 2772 
Q 4500 2988 4153 2988 
Q 3769 2988 3567 2697 
Q 3366 2406 3366 1850 
L 3366 331 
L 3866 331 
L 3866 0 
L 2291 0 
L 2291 331 
L 2791 331 
L 2791 2069 
Q 2791 2566 2641 2777 
Q 2491 2988 2144 2988 
Q 1759 2988 1557 2697 
Q 1356 2406 1356 1850 
L 1356 331 
L 1856 331 
L 1856 0 
L 263 0 
L 263 331 
L 781 331 
L 781 2994 
L 231 2994 
L 231 3322 
L 1356 3322 
L 1356 2731 
Q 1516 3063 1762 3238 
Q 2009 3413 2322 3413 
Q 2709 3413 2968 3220 
Q 3228 3028 3316 2675 
z
" transform="scale(0.015625)"/>
       <path id="DejaVuSerif-62" d="M 738 331 
L 738 4531 
L 184 4531 
L 184 4863 
L 1313 4863 
L 1313 2803 
Q 1481 3116 1742 3264 
Q 2003 3413 2388 3413 
Q 3000 3413 3387 2928 
Q 3775 2444 3775 1663 
Q 3775 881 3387 395 
Q 3000 -91 2388 -91 
Q 2003 -91 1742 57 
Q 1481 206 1313 519 
L 1313 0 
L 184 0 
L 184 331 
L 738 331 
z
M 1313 1497 
Q 1313 897 1542 583 
Q 1772 269 2209 269 
Q 2650 269 2876 622 
Q 3103 975 3103 1663 
Q 3103 2353 2876 2703 
Q 2650 3053 2209 3053 
Q 1772 3053 1542 2737 
Q 1313 2422 1313 1825 
L 1313 1497 
z
" transform="scale(0.015625)"/>
       <path id="DejaVuSerif-65" d="M 3469 1600 
L 991 1600 
L 991 1575 
Q 991 903 1244 561 
Q 1497 219 1991 219 
Q 2369 219 2611 417 
Q 2853 616 2950 1006 
L 3413 1006 
Q 3275 459 2904 184 
Q 2534 -91 1931 -91 
Q 1203 -91 761 389 
Q 319 869 319 1663 
Q 319 2450 753 2931 
Q 1188 3413 1894 3413 
Q 2647 3413 3050 2948 
Q 3453 2484 3469 1600 
z
M 2791 1931 
Q 2772 2513 2545 2808 
Q 2319 3103 1894 3103 
Q 1497 3103 1269 2806 
Q 1041 2509 991 1931 
L 2791 1931 
z
" transform="scale(0.015625)"/>
       <path id="DejaVuSerif-72" d="M 3059 3328 
L 3059 2497 
L 2728 2497 
Q 2713 2744 2591 2866 
Q 2469 2988 2234 2988 
Q 1809 2988 1582 2694 
Q 1356 2400 1356 1850 
L 1356 331 
L 2022 331 
L 2022 0 
L 263 0 
L 263 331 
L 781 331 
L 781 2994 
L 231 2994 
L 231 3322 
L 1356 3322 
L 1356 2731 
Q 1525 3078 1790 3245 
Q 2056 3413 2438 3413 
Q 2578 3413 2733 3391 
Q 2888 3369 3059 3328 
z
" transform="scale(0.015625)"/>
       <path id="DejaVuSerif-6f" d="M 1925 219 
Q 2388 219 2623 584 
Q 2859 950 2859 1663 
Q 2859 2375 2623 2739 
Q 2388 3103 1925 3103 
Q 1463 3103 1227 2739 
Q 991 2375 991 1663 
Q 991 950 1228 584 
Q 1466 219 1925 219 
z
M 1925 -91 
Q 1200 -91 759 389 
Q 319 869 319 1663 
Q 319 2456 758 2934 
Q 1197 3413 1925 3413 
Q 2653 3413 3092 2934 
Q 3531 2456 3531 1663 
Q 3531 869 3092 389 
Q 2653 -91 1925 -91 
z
" transform="scale(0.015625)"/>
       <path id="DejaVuSerif-66" d="M 2753 4078 
L 2450 4078 
Q 2447 4313 2317 4434 
Q 2188 4556 1941 4556 
Q 1619 4556 1487 4379 
Q 1356 4203 1356 3750 
L 1356 3322 
L 2284 3322 
L 2284 2988 
L 1356 2988 
L 1356 331 
L 2094 331 
L 2094 0 
L 231 0 
L 231 331 
L 781 331 
L 781 2988 
L 231 2988 
L 231 3322 
L 781 3322 
L 781 3738 
Q 781 4294 1070 4578 
Q 1359 4863 1919 4863 
Q 2128 4863 2337 4825 
Q 2547 4788 2753 4709 
L 2753 4078 
z
" transform="scale(0.015625)"/>
       <path id="DejaVuSerif-73" d="M 359 184 
L 359 959 
L 691 959 
Q 703 588 923 403 
Q 1144 219 1575 219 
Q 1963 219 2166 364 
Q 2369 509 2369 788 
Q 2369 1006 2220 1140 
Q 2072 1275 1594 1428 
L 1178 1569 
Q 750 1706 558 1912 
Q 366 2119 366 2438 
Q 366 2894 700 3153 
Q 1034 3413 1625 3413 
Q 1888 3413 2178 3344 
Q 2469 3275 2778 3144 
L 2778 2419 
L 2447 2419 
Q 2434 2741 2221 2922 
Q 2009 3103 1644 3103 
Q 1281 3103 1095 2975 
Q 909 2847 909 2591 
Q 909 2381 1050 2254 
Q 1191 2128 1613 1997 
L 2069 1856 
Q 2541 1709 2748 1489 
Q 2956 1269 2956 922 
Q 2956 450 2595 179 
Q 2234 -91 1600 -91 
Q 1278 -91 972 -22 
Q 666 47 359 184 
z
" transform="scale(0.015625)"/>
       <path id="DejaVuSerif-70" d="M 1313 1825 
L 1313 1497 
Q 1313 897 1542 583 
Q 1772 269 2209 269 
Q 2650 269 2876 622 
Q 3103 975 3103 1663 
Q 3103 2353 2876 2703 
Q 2650 3053 2209 3053 
Q 1772 3053 1542 2737 
Q 1313 2422 1313 1825 
z
M 738 2988 
L 184 2988 
L 184 3322 
L 1313 3322 
L 1313 2803 
Q 1481 3116 1742 3264 
Q 2003 3413 2388 3413 
Q 3000 3413 3387 2928 
Q 3775 2444 3775 1663 
Q 3775 881 3387 395 
Q 3000 -91 2388 -91 
Q 2003 -91 1742 57 
Q 1481 206 1313 519 
L 1313 -997 
L 1856 -997 
L 1856 -1331 
L 184 -1331 
L 184 -997 
L 738 -997 
L 738 2988 
z
" transform="scale(0.015625)"/>
       <path id="DejaVuSerif-63" d="M 3291 997 
Q 3169 466 2822 187 
Q 2475 -91 1925 -91 
Q 1200 -91 759 389 
Q 319 869 319 1663 
Q 319 2459 759 2936 
Q 1200 3413 1925 3413 
Q 2241 3413 2553 3339 
Q 2866 3266 3181 3116 
L 3181 2266 
L 2847 2266 
Q 2781 2703 2561 2903 
Q 2341 3103 1931 3103 
Q 1466 3103 1228 2742 
Q 991 2381 991 1663 
Q 991 944 1227 581 
Q 1463 219 1931 219 
Q 2303 219 2525 412 
Q 2747 606 2828 997 
L 3291 997 
z
" transform="scale(0.015625)"/>
       <path id="DejaVuSerif-68" d="M 263 0 
L 263 331 
L 781 331 
L 781 4531 
L 231 4531 
L 231 4863 
L 1356 4863 
L 1356 2731 
Q 1516 3069 1770 3241 
Q 2025 3413 2363 3413 
Q 2913 3413 3172 3097 
Q 3431 2781 3431 2113 
L 3431 331 
L 3944 331 
L 3944 0 
L 2356 0 
L 2356 331 
L 2853 331 
L 2853 1931 
Q 2853 2541 2704 2764 
Q 2556 2988 2175 2988 
Q 1775 2988 1565 2697 
Q 1356 2406 1356 1850 
L 1356 331 
L 1856 331 
L 1856 0 
L 263 0 
z
" transform="scale(0.015625)"/>
       <path id="DejaVuSerif-61" d="M 2547 1044 
L 2547 1747 
L 1806 1747 
Q 1378 1747 1168 1562 
Q 959 1378 959 997 
Q 959 650 1171 447 
Q 1384 244 1747 244 
Q 2106 244 2326 466 
Q 2547 688 2547 1044 
z
M 3122 2075 
L 3122 331 
L 3634 331 
L 3634 0 
L 2547 0 
L 2547 359 
Q 2356 128 2106 18 
Q 1856 -91 1522 -91 
Q 969 -91 644 203 
Q 319 497 319 997 
Q 319 1513 691 1797 
Q 1063 2081 1741 2081 
L 2547 2081 
L 2547 2309 
Q 2547 2688 2317 2895 
Q 2088 3103 1672 3103 
Q 1328 3103 1125 2947 
Q 922 2791 872 2484 
L 575 2484 
L 575 3156 
Q 875 3284 1158 3348 
Q 1441 3413 1709 3413 
Q 2400 3413 2761 3070 
Q 3122 2728 3122 2075 
z
" transform="scale(0.015625)"/>
       <path id="DejaVuSerif-6c" d="M 1313 331 
L 1856 331 
L 1856 0 
L 184 0 
L 184 331 
L 738 331 
L 738 4531 
L 184 4531 
L 184 4863 
L 1313 4863 
L 1313 331 
z
" transform="scale(0.015625)"/>
      </defs>
      <use xlink:href="#DejaVuSerif-4e"/>
      <use xlink:href="#DejaVuSerif-75" x="87.5"/>
      <use xlink:href="#DejaVuSerif-6d" x="151.904297"/>
      <use xlink:href="#DejaVuSerif-62" x="246.728516"/>
      <use xlink:href="#DejaVuSerif-65" x="310.742188"/>
      <use xlink:href="#DejaVuSerif-72" x="369.921875"/>
      <use xlink:href="#DejaVuSerif-20" x="417.724609"/>
      <use xlink:href="#DejaVuSerif-6f" x="449.511719"/>
      <use xlink:href="#DejaVuSerif-66" x="509.716797"/>
      <use xlink:href="#DejaVuSerif-20" x="546.728516"/>
      <use xlink:href="#DejaVuSerif-73" x="578.515625"/>
      <use xlink:href="#DejaVuSerif-70" x="629.833984"/>
      <use xlink:href="#DejaVuSerif-65" x="693.847656"/>
      <use xlink:href="#DejaVuSerif-65" x="753.027344"/>
      <use xlink:href="#DejaVuSerif-63" x="812.207031"/>
      <use xlink:href="#DejaVuSerif-68" x="868.212891"/>
      <use xlink:href="#DejaVuSerif-20" x="932.617188"/>
      <use xlink:href="#DejaVuSerif-73" x="964.404297"/>
      <use xlink:href="#DejaVuSerif-61" x="1015.722656"/>
      <use xlink:href="#DejaVuSerif-6d" x="1075.341797"/>
      <use xlink:href="#DejaVuSerif-70" x="1170.166016"/>
      <use xlink:href="#DejaVuSerif-6c" x="1234.179688"/>
      <use xlink:href="#DejaVuSerif-65" x="1266.162109"/>
      <use xlink:href="#DejaVuSerif-73" x="1325.341797"/>
     </g>
    </g>
   </g>
   <g id="line2d_15">
    <path d="M 51.357955 252.717673 
L 57.475817 252.693307 
L 69.711541 252.821222 
L 73.790115 252.551659 
L 78.888334 251.932411 
L 83.986552 251.294924 
L 87.045483 251.111438 
L 91.124058 251.176455 
L 96.222276 251.274475 
L 103.359782 251.245431 
L 109.477644 251.337844 
L 115.595506 251.110116 
L 118.654437 250.804404 
L 120.693724 250.383119 
L 122.733012 249.655855 
L 123.752655 249.118665 
L 124.772299 248.412953 
L 125.791943 247.477108 
L 126.811586 246.225772 
L 127.83123 244.546079 
L 128.850874 242.29678 
L 129.870517 239.312032 
L 130.890161 235.411504 
L 131.909805 230.417782 
L 132.929448 224.180853 
L 133.949092 216.607573 
L 134.968736 207.692025 
L 137.008023 186.386768 
L 141.086598 140.008017 
L 142.106241 130.347911 
L 143.125885 122.211569 
L 144.145529 115.731109 
L 145.165172 110.865478 
L 146.184816 107.421011 
L 147.20446 105.096962 
L 148.224103 103.546059 
L 149.243747 102.437374 
L 153.322322 98.786428 
L 154.341966 98.072941 
L 155.361609 97.71442 
L 156.381253 97.895381 
L 157.400897 98.774333 
L 158.42054 100.461492 
L 159.440184 103.006892 
L 160.459828 106.39815 
L 161.479471 110.565812 
L 163.518759 120.7318 
L 168.616977 149.07498 
L 170.656264 158.412034 
L 171.675908 162.275394 
L 172.695552 165.565286 
L 173.715195 168.286721 
L 174.734839 170.464359 
L 175.754483 172.136595 
L 176.774126 173.350278 
L 177.79377 174.156741 
L 178.813414 174.609314 
L 179.833057 174.762007 
L 180.852701 174.668702 
L 181.872345 174.382161 
L 183.911632 173.42461 
L 187.990207 170.959058 
L 191.049138 169.178508 
L 193.088425 168.249439 
L 194.108069 167.953974 
L 195.127712 167.825304 
L 196.147356 167.902697 
L 197.167 168.218222 
L 198.186643 168.792955 
L 199.206287 169.635345 
L 200.225931 170.741825 
L 201.245574 172.099169 
L 202.265218 173.687628 
L 204.304505 177.462942 
L 206.343793 181.86622 
L 209.402724 189.16679 
L 213.481299 198.938719 
L 215.520586 203.375102 
L 217.559873 207.380707 
L 219.599161 210.996852 
L 223.677735 217.619259 
L 233.874172 233.753584 
L 236.933103 237.915581 
L 239.992034 241.694198 
L 243.050965 245.076321 
L 245.090252 246.99287 
L 247.12954 248.544594 
L 249.168827 249.71365 
L 251.208114 250.556907 
L 253.247402 251.173961 
L 254.267045 251.427939 
L 254.267045 251.427939 
" clip-path="url(#p703416670b)" style="fill: none; stroke: #1f77b4; stroke-width: 1.5; stroke-linecap: square"/>
   </g>
   <g id="line2d_16">
    <path d="M 94.836463 252.825715 
L 110.709638 252.76498 
L 114.677931 252.428092 
L 117.852566 251.952887 
L 120.233542 251.337346 
L 121.82086 250.657493 
L 123.408177 249.581134 
L 124.201836 248.821271 
L 124.995495 247.863299 
L 125.789153 246.662193 
L 126.582812 245.167552 
L 127.376471 243.324577 
L 128.17013 241.07566 
L 128.963788 238.362696 
L 129.757447 235.130111 
L 130.551106 231.328582 
L 131.344764 226.919306 
L 132.932082 216.202342 
L 134.519399 203.048899 
L 136.106717 187.947424 
L 140.07501 148.513995 
L 141.662328 135.46991 
L 142.455987 130.08972 
L 143.249645 125.571804 
L 144.043304 121.942691 
L 144.836963 119.188828 
L 145.630622 117.259658 
L 146.42428 116.073497 
L 147.217939 115.52558 
L 148.011598 115.497465 
L 148.805256 115.866853 
L 149.598915 116.516899 
L 151.186233 118.264934 
L 156.741844 125.109771 
L 158.329161 127.838574 
L 159.12282 129.535608 
L 160.710137 133.737579 
L 162.297455 139.075912 
L 163.884772 145.457388 
L 166.265748 156.394668 
L 170.234042 175.001591 
L 171.821359 181.443188 
L 173.408677 186.883494 
L 174.995994 191.17924 
L 175.789653 192.882079 
L 176.583312 194.291446 
L 177.376971 195.415763 
L 178.170629 196.26727 
L 178.964288 196.861189 
L 179.757947 197.214913 
L 180.551605 197.347276 
L 181.345264 197.277887 
L 182.138923 197.026563 
L 182.932582 196.612865 
L 184.519899 195.373221 
L 186.107217 193.699249 
L 187.694534 191.715568 
L 190.869169 187.267882 
L 194.043804 182.931676 
L 195.631121 181.096392 
L 197.218439 179.617028 
L 198.805756 178.553798 
L 200.393074 177.922963 
L 201.980391 177.700435 
L 203.567708 177.835112 
L 205.155026 178.264342 
L 206.742343 178.923546 
L 209.12332 180.197829 
L 213.091613 182.435066 
L 214.678931 183.12626 
L 216.266248 183.606572 
L 217.853566 183.862775 
L 220.234542 183.920129 
L 222.615518 183.891285 
L 224.202835 184.069699 
L 225.790153 184.605134 
L 226.583812 185.059426 
L 227.37747 185.663553 
L 228.171129 186.433706 
L 228.964788 187.382934 
L 230.552105 189.851503 
L 232.139423 193.090486 
L 233.72674 197.046225 
L 235.314057 201.595018 
L 237.695034 209.136933 
L 242.456986 224.397125 
L 244.837962 231.115924 
L 246.42528 235.081701 
L 248.012597 238.609517 
L 249.599915 241.69466 
L 251.187232 244.340485 
L 252.774549 246.55625 
L 252.774549 246.55625 
" clip-path="url(#p703416670b)" style="fill: none; stroke: #ff7f0e; stroke-width: 1.5; stroke-linecap: square"/>
   </g>
   <g id="patch_63">
    <path d="M 41.2125 253.0044 
L 41.2125 31.2444 
" style="fill: none; stroke: #000000; stroke-width: 0.8; stroke-linejoin: miter; stroke-linecap: square"/>
   </g>
   <g id="patch_64">
    <path d="M 264.4125 253.0044 
L 264.4125 31.2444 
" style="fill: none; stroke: #000000; stroke-width: 0.8; stroke-linejoin: miter; stroke-linecap: square"/>
   </g>
   <g id="patch_65">
    <path d="M 41.2125 253.0044 
L 264.4125 253.0044 
" style="fill: none; stroke: #000000; stroke-width: 0.8; stroke-linejoin: miter; stroke-linecap: square"/>
   </g>
   <g id="patch_66">
    <path d="M 41.2125 31.2444 
L 264.4125 31.2444 
" style="fill: none; stroke: #000000; stroke-width: 0.8; stroke-linejoin: miter; stroke-linecap: square"/>
   </g>
   <g id="text_17">
    <!-- SNR Distribution -  -->
    <g transform="translate(106.29675 14.4945) scale(0.096 -0.096)">
     <defs>
      <path id="DejaVuSerif-44" d="M 1581 331 
L 2163 331 
Q 3072 331 3558 850 
Q 4044 1369 4044 2338 
Q 4044 3306 3559 3818 
Q 3075 4331 2163 4331 
L 1581 4331 
L 1581 331 
z
M 353 0 
L 353 331 
L 947 331 
L 947 4331 
L 353 4331 
L 353 4666 
L 2209 4666 
Q 3416 4666 4089 4050 
Q 4763 3434 4763 2338 
Q 4763 1238 4088 619 
Q 3413 0 2209 0 
L 353 0 
z
" transform="scale(0.015625)"/>
      <path id="DejaVuSerif-69" d="M 622 4353 
Q 622 4497 726 4603 
Q 831 4709 978 4709 
Q 1122 4709 1226 4603 
Q 1331 4497 1331 4353 
Q 1331 4206 1228 4103 
Q 1125 4000 978 4000 
Q 831 4000 726 4103 
Q 622 4206 622 4353 
z
M 1356 331 
L 1900 331 
L 1900 0 
L 231 0 
L 231 331 
L 781 331 
L 781 2988 
L 231 2988 
L 231 3322 
L 1356 3322 
L 1356 331 
z
" transform="scale(0.015625)"/>
      <path id="DejaVuSerif-74" d="M 691 2988 
L 184 2988 
L 184 3322 
L 691 3322 
L 691 4353 
L 1269 4353 
L 1269 3322 
L 2350 3322 
L 2350 2988 
L 1269 2988 
L 1269 878 
Q 1269 456 1350 337 
Q 1431 219 1650 219 
Q 1875 219 1978 351 
Q 2081 484 2088 781 
L 2522 781 
Q 2497 328 2275 118 
Q 2053 -91 1600 -91 
Q 1103 -91 897 129 
Q 691 350 691 878 
L 691 2988 
z
" transform="scale(0.015625)"/>
      <path id="DejaVuSerif-6e" d="M 263 0 
L 263 331 
L 781 331 
L 781 2988 
L 231 2988 
L 231 3322 
L 1356 3322 
L 1356 2731 
Q 1516 3069 1770 3241 
Q 2025 3413 2363 3413 
Q 2913 3413 3172 3097 
Q 3431 2781 3431 2113 
L 3431 331 
L 3944 331 
L 3944 0 
L 2356 0 
L 2356 331 
L 2853 331 
L 2853 1931 
Q 2853 2541 2703 2767 
Q 2553 2994 2175 2994 
Q 1775 2994 1565 2701 
Q 1356 2409 1356 1850 
L 1356 331 
L 1856 331 
L 1856 0 
L 263 0 
z
" transform="scale(0.015625)"/>
      <path id="DejaVuSerif-2d" d="M 281 1959 
L 1881 1959 
L 1881 1472 
L 281 1472 
L 281 1959 
z
" transform="scale(0.015625)"/>
     </defs>
     <use xlink:href="#DejaVuSerif-53"/>
     <use xlink:href="#DejaVuSerif-4e" x="68.505859"/>
     <use xlink:href="#DejaVuSerif-52" x="156.005859"/>
     <use xlink:href="#DejaVuSerif-20" x="231.298828"/>
     <use xlink:href="#DejaVuSerif-44" x="263.085938"/>
     <use xlink:href="#DejaVuSerif-69" x="343.261719"/>
     <use xlink:href="#DejaVuSerif-73" x="375.244141"/>
     <use xlink:href="#DejaVuSerif-74" x="426.5625"/>
     <use xlink:href="#DejaVuSerif-72" x="466.748047"/>
     <use xlink:href="#DejaVuSerif-69" x="514.550781"/>
     <use xlink:href="#DejaVuSerif-62" x="546.533203"/>
     <use xlink:href="#DejaVuSerif-75" x="610.546875"/>
     <use xlink:href="#DejaVuSerif-74" x="674.951172"/>
     <use xlink:href="#DejaVuSerif-69" x="715.136719"/>
     <use xlink:href="#DejaVuSerif-6f" x="747.119141"/>
     <use xlink:href="#DejaVuSerif-6e" x="807.324219"/>
     <use xlink:href="#DejaVuSerif-20" x="871.728516"/>
     <use xlink:href="#DejaVuSerif-2d" x="903.515625"/>
     <use xlink:href="#DejaVuSerif-20" x="937.304688"/>
    </g>
    <!-- Raw and Facebook Denoiser -->
    <g transform="translate(83.5545 25.2444) scale(0.096 -0.096)">
     <defs>
      <path id="DejaVuSerif-77" d="M 3072 3322 
L 3922 728 
L 4672 2988 
L 4191 2988 
L 4191 3322 
L 5394 3322 
L 5394 2988 
L 5025 2988 
L 4038 0 
L 3559 0 
L 2741 2484 
L 1919 0 
L 1459 0 
L 475 2988 
L 103 2988 
L 103 3322 
L 1606 3322 
L 1606 2988 
L 1069 2988 
L 1813 728 
L 2669 3322 
L 3072 3322 
z
" transform="scale(0.015625)"/>
      <path id="DejaVuSerif-46" d="M 353 0 
L 353 331 
L 947 331 
L 947 4331 
L 353 4331 
L 353 4666 
L 4172 4666 
L 4172 3628 
L 3788 3628 
L 3788 4281 
L 1581 4281 
L 1581 2719 
L 3175 2719 
L 3175 3303 
L 3559 3303 
L 3559 1753 
L 3175 1753 
L 3175 2338 
L 1581 2338 
L 1581 331 
L 2328 331 
L 2328 0 
L 353 0 
z
" transform="scale(0.015625)"/>
      <path id="DejaVuSerif-6b" d="M 1831 0 
L 219 0 
L 219 331 
L 738 331 
L 738 4531 
L 184 4531 
L 184 4863 
L 1313 4863 
L 1313 1697 
L 2713 2988 
L 2234 2988 
L 2234 3322 
L 3738 3322 
L 3738 2988 
L 3169 2988 
L 2181 2075 
L 3444 331 
L 3922 331 
L 3922 0 
L 2284 0 
L 2284 331 
L 2759 331 
L 1766 1697 
L 1313 1275 
L 1313 331 
L 1831 331 
L 1831 0 
z
" transform="scale(0.015625)"/>
     </defs>
     <use xlink:href="#DejaVuSerif-52"/>
     <use xlink:href="#DejaVuSerif-61" x="77.542969"/>
     <use xlink:href="#DejaVuSerif-77" x="137.162109"/>
     <use xlink:href="#DejaVuSerif-20" x="222.757812"/>
     <use xlink:href="#DejaVuSerif-61" x="254.544922"/>
     <use xlink:href="#DejaVuSerif-6e" x="314.164062"/>
     <use xlink:href="#DejaVuSerif-64" x="378.568359"/>
     <use xlink:href="#DejaVuSerif-20" x="442.582031"/>
     <use xlink:href="#DejaVuSerif-46" x="474.369141"/>
     <use xlink:href="#DejaVuSerif-61" x="537.003906"/>
     <use xlink:href="#DejaVuSerif-63" x="596.623047"/>
     <use xlink:href="#DejaVuSerif-65" x="652.628906"/>
     <use xlink:href="#DejaVuSerif-62" x="711.808594"/>
     <use xlink:href="#DejaVuSerif-6f" x="775.822266"/>
     <use xlink:href="#DejaVuSerif-6f" x="836.027344"/>
     <use xlink:href="#DejaVuSerif-6b" x="896.232422"/>
     <use xlink:href="#DejaVuSerif-20" x="956.828125"/>
     <use xlink:href="#DejaVuSerif-44" x="988.615234"/>
     <use xlink:href="#DejaVuSerif-65" x="1068.791016"/>
     <use xlink:href="#DejaVuSerif-6e" x="1127.970703"/>
     <use xlink:href="#DejaVuSerif-6f" x="1192.375"/>
     <use xlink:href="#DejaVuSerif-69" x="1252.580078"/>
     <use xlink:href="#DejaVuSerif-73" x="1284.5625"/>
     <use xlink:href="#DejaVuSerif-65" x="1335.880859"/>
     <use xlink:href="#DejaVuSerif-72" x="1395.060547"/>
    </g>
   </g>
   <g id="legend_1">
    <g id="patch_67">
     <path d="M 195.575 61.1294 
L 258.8125 61.1294 
Q 260.4125 61.1294 260.4125 59.5294 
L 260.4125 36.8444 
Q 260.4125 35.2444 258.8125 35.2444 
L 195.575 35.2444 
Q 193.975 35.2444 193.975 36.8444 
L 193.975 59.5294 
Q 193.975 61.1294 195.575 61.1294 
z
" style="fill: #ffffff; opacity: 0.8; stroke: #cccccc; stroke-linejoin: miter"/>
    </g>
    <g id="patch_68">
     <path d="M 197.175 44.52315 
L 213.175 44.52315 
L 213.175 38.92315 
L 197.175 38.92315 
z
" style="fill: #1f77b4; fill-opacity: 0.5; stroke: #000000; stroke-width: 0.676364; stroke-linejoin: miter"/>
    </g>
    <g id="text_18">
     <!-- Raw -->
     <g transform="translate(219.575 44.52315) scale(0.08 -0.08)">
      <use xlink:href="#DejaVuSerif-52"/>
      <use xlink:href="#DejaVuSerif-61" x="77.542969"/>
      <use xlink:href="#DejaVuSerif-77" x="137.162109"/>
     </g>
    </g>
    <g id="patch_69">
     <path d="M 197.175 56.26565 
L 213.175 56.26565 
L 213.175 50.66565 
L 197.175 50.66565 
z
" style="fill: #ff7f0e; fill-opacity: 0.5; stroke: #000000; stroke-width: 0.676364; stroke-linejoin: miter"/>
    </g>
    <g id="text_19">
     <!-- Denoised -->
     <g transform="translate(219.575 56.26565) scale(0.08 -0.08)">
      <use xlink:href="#DejaVuSerif-44"/>
      <use xlink:href="#DejaVuSerif-65" x="80.175781"/>
      <use xlink:href="#DejaVuSerif-6e" x="139.355469"/>
      <use xlink:href="#DejaVuSerif-6f" x="203.759766"/>
      <use xlink:href="#DejaVuSerif-69" x="263.964844"/>
      <use xlink:href="#DejaVuSerif-73" x="295.947266"/>
      <use xlink:href="#DejaVuSerif-65" x="347.265625"/>
      <use xlink:href="#DejaVuSerif-64" x="406.445312"/>
     </g>
    </g>
   </g>
  </g>
 </g>
 <defs>
  <clipPath id="p703416670b">
   <rect x="41.2125" y="31.2444" width="223.2" height="221.76"/>
  </clipPath>
 </defs>
</svg>
