<?xml version="1.0" encoding="utf-8" standalone="no"?>
<!DOCTYPE svg PUBLIC "-//W3C//DTD SVG 1.1//EN"
  "http://www.w3.org/Graphics/SVG/1.1/DTD/svg11.dtd">
<svg xmlns:xlink="http://www.w3.org/1999/xlink" width="305.0925pt" height="198.3235pt" viewBox="0 0 305.0925 198.3235" xmlns="http://www.w3.org/2000/svg" version="1.1">
 <metadata>
  <rdf:RDF xmlns:dc="http://purl.org/dc/elements/1.1/" xmlns:cc="http://creativecommons.org/ns#" xmlns:rdf="http://www.w3.org/1999/02/22-rdf-syntax-ns#">
   <cc:Work>
    <dc:type rdf:resource="http://purl.org/dc/dcmitype/StillImage"/>
    <dc:date>2024-07-02T10:29:10.186634</dc:date>
    <dc:format>image/svg+xml</dc:format>
    <dc:creator>
     <cc:Agent>
      <dc:title>Matplotlib v3.7.5, https://matplotlib.org/</dc:title>
     </cc:Agent>
    </dc:creator>
   </cc:Work>
  </rdf:RDF>
 </metadata>
 <defs>
  <style type="text/css">*{stroke-linejoin: round; stroke-linecap: butt}</style>
 </defs>
 <g id="figure_1">
  <g id="patch_1">
   <path d="M 0 198.3235 
L 305.0925 198.3235 
L 305.0925 0 
L 0 0 
z
" style="fill: #ffffff"/>
  </g>
  <g id="axes_1">
   <g id="patch_2">
    <path d="M 41.2125 164.6385 
L 297.8925 164.6385 
L 297.8925 20.4945 
L 41.2125 20.4945 
z
" style="fill: #ffffff"/>
   </g>
   <g id="patch_3">
    <path d="M 52.879773 164.6385 
L 60.657955 164.6385 
L 60.657955 164.365578 
L 52.879773 164.365578 
z
" clip-path="url(#pa9bf61fc31)" style="fill: #1f77b4; fill-opacity: 0.5; stroke: #000000; stroke-width: 0.777818; stroke-linejoin: miter"/>
   </g>
   <g id="patch_4">
    <path d="M 60.657955 164.6385 
L 68.436136 164.6385 
L 68.436136 164.365578 
L 60.657955 164.365578 
z
" clip-path="url(#pa9bf61fc31)" style="fill: #1f77b4; fill-opacity: 0.5; stroke: #000000; stroke-width: 0.777818; stroke-linejoin: miter"/>
   </g>
   <g id="patch_5">
    <path d="M 68.436136 164.6385 
L 76.214318 164.6385 
L 76.214318 164.6385 
L 68.436136 164.6385 
z
" clip-path="url(#pa9bf61fc31)" style="fill: #1f77b4; fill-opacity: 0.5; stroke: #000000; stroke-width: 0.777818; stroke-linejoin: miter"/>
   </g>
   <g id="patch_6">
    <path d="M 76.214318 164.6385 
L 83.9925 164.6385 
L 83.9925 164.365578 
L 76.214318 164.365578 
z
" clip-path="url(#pa9bf61fc31)" style="fill: #1f77b4; fill-opacity: 0.5; stroke: #000000; stroke-width: 0.777818; stroke-linejoin: miter"/>
   </g>
   <g id="patch_7">
    <path d="M 83.9925 164.6385 
L 91.770682 164.6385 
L 91.770682 163.54681 
L 83.9925 163.54681 
z
" clip-path="url(#pa9bf61fc31)" style="fill: #1f77b4; fill-opacity: 0.5; stroke: #000000; stroke-width: 0.777818; stroke-linejoin: miter"/>
   </g>
   <g id="patch_8">
    <path d="M 91.770682 164.6385 
L 99.548864 164.6385 
L 99.548864 163.000965 
L 91.770682 163.000965 
z
" clip-path="url(#pa9bf61fc31)" style="fill: #1f77b4; fill-opacity: 0.5; stroke: #000000; stroke-width: 0.777818; stroke-linejoin: miter"/>
   </g>
   <g id="patch_9">
    <path d="M 99.548864 164.6385 
L 107.327045 164.6385 
L 107.327045 164.365578 
L 99.548864 164.365578 
z
" clip-path="url(#pa9bf61fc31)" style="fill: #1f77b4; fill-opacity: 0.5; stroke: #000000; stroke-width: 0.777818; stroke-linejoin: miter"/>
   </g>
   <g id="patch_10">
    <path d="M 107.327045 164.6385 
L 115.105227 164.6385 
L 115.105227 162.728043 
L 107.327045 162.728043 
z
" clip-path="url(#pa9bf61fc31)" style="fill: #1f77b4; fill-opacity: 0.5; stroke: #000000; stroke-width: 0.777818; stroke-linejoin: miter"/>
   </g>
   <g id="patch_11">
    <path d="M 115.105227 164.6385 
L 122.883409 164.6385 
L 122.883409 163.819733 
L 115.105227 163.819733 
z
" clip-path="url(#pa9bf61fc31)" style="fill: #1f77b4; fill-opacity: 0.5; stroke: #000000; stroke-width: 0.777818; stroke-linejoin: miter"/>
   </g>
   <g id="patch_12">
    <path d="M 122.883409 164.6385 
L 130.661591 164.6385 
L 130.661591 163.54681 
L 122.883409 163.54681 
z
" clip-path="url(#pa9bf61fc31)" style="fill: #1f77b4; fill-opacity: 0.5; stroke: #000000; stroke-width: 0.777818; stroke-linejoin: miter"/>
   </g>
   <g id="patch_13">
    <path d="M 130.661591 164.6385 
L 138.439773 164.6385 
L 138.439773 163.000965 
L 130.661591 163.000965 
z
" clip-path="url(#pa9bf61fc31)" style="fill: #1f77b4; fill-opacity: 0.5; stroke: #000000; stroke-width: 0.777818; stroke-linejoin: miter"/>
   </g>
   <g id="patch_14">
    <path d="M 138.439773 164.6385 
L 146.217955 164.6385 
L 146.217955 160.817585 
L 138.439773 160.817585 
z
" clip-path="url(#pa9bf61fc31)" style="fill: #1f77b4; fill-opacity: 0.5; stroke: #000000; stroke-width: 0.777818; stroke-linejoin: miter"/>
   </g>
   <g id="patch_15">
    <path d="M 146.217955 164.6385 
L 153.996136 164.6385 
L 153.996136 152.902834 
L 146.217955 152.902834 
z
" clip-path="url(#pa9bf61fc31)" style="fill: #1f77b4; fill-opacity: 0.5; stroke: #000000; stroke-width: 0.777818; stroke-linejoin: miter"/>
   </g>
   <g id="patch_16">
    <path d="M 153.996136 164.6385 
L 161.774318 164.6385 
L 161.774318 44.279693 
L 153.996136 44.279693 
z
" clip-path="url(#pa9bf61fc31)" style="fill: #1f77b4; fill-opacity: 0.5; stroke: #000000; stroke-width: 0.777818; stroke-linejoin: miter"/>
   </g>
   <g id="patch_17">
    <path d="M 161.774318 164.6385 
L 169.5525 164.6385 
L 169.5525 82.76176 
L 161.774318 82.76176 
z
" clip-path="url(#pa9bf61fc31)" style="fill: #1f77b4; fill-opacity: 0.5; stroke: #000000; stroke-width: 0.777818; stroke-linejoin: miter"/>
   </g>
   <g id="patch_18">
    <path d="M 169.5525 164.6385 
L 177.330682 164.6385 
L 177.330682 51.648599 
L 169.5525 51.648599 
z
" clip-path="url(#pa9bf61fc31)" style="fill: #1f77b4; fill-opacity: 0.5; stroke: #000000; stroke-width: 0.777818; stroke-linejoin: miter"/>
   </g>
   <g id="patch_19">
    <path d="M 177.330682 164.6385 
L 185.108864 164.6385 
L 185.108864 73.209474 
L 177.330682 73.209474 
z
" clip-path="url(#pa9bf61fc31)" style="fill: #1f77b4; fill-opacity: 0.5; stroke: #000000; stroke-width: 0.777818; stroke-linejoin: miter"/>
   </g>
   <g id="patch_20">
    <path d="M 185.108864 164.6385 
L 192.887045 164.6385 
L 192.887045 106.506015 
L 185.108864 106.506015 
z
" clip-path="url(#pa9bf61fc31)" style="fill: #1f77b4; fill-opacity: 0.5; stroke: #000000; stroke-width: 0.777818; stroke-linejoin: miter"/>
   </g>
   <g id="patch_21">
    <path d="M 192.887045 164.6385 
L 200.665227 164.6385 
L 200.665227 117.149991 
L 192.887045 117.149991 
z
" clip-path="url(#pa9bf61fc31)" style="fill: #1f77b4; fill-opacity: 0.5; stroke: #000000; stroke-width: 0.777818; stroke-linejoin: miter"/>
   </g>
   <g id="patch_22">
    <path d="M 200.665227 164.6385 
L 208.443409 164.6385 
L 208.443409 111.691542 
L 200.665227 111.691542 
z
" clip-path="url(#pa9bf61fc31)" style="fill: #1f77b4; fill-opacity: 0.5; stroke: #000000; stroke-width: 0.777818; stroke-linejoin: miter"/>
   </g>
   <g id="patch_23">
    <path d="M 208.443409 164.6385 
L 216.221591 164.6385 
L 216.221591 112.237387 
L 208.443409 112.237387 
z
" clip-path="url(#pa9bf61fc31)" style="fill: #1f77b4; fill-opacity: 0.5; stroke: #000000; stroke-width: 0.777818; stroke-linejoin: miter"/>
   </g>
   <g id="patch_24">
    <path d="M 216.221591 164.6385 
L 223.999773 164.6385 
L 223.999773 104.049713 
L 216.221591 104.049713 
z
" clip-path="url(#pa9bf61fc31)" style="fill: #1f77b4; fill-opacity: 0.5; stroke: #000000; stroke-width: 0.777818; stroke-linejoin: miter"/>
   </g>
   <g id="patch_25">
    <path d="M 223.999773 164.6385 
L 231.777955 164.6385 
L 231.777955 113.056154 
L 223.999773 113.056154 
z
" clip-path="url(#pa9bf61fc31)" style="fill: #1f77b4; fill-opacity: 0.5; stroke: #000000; stroke-width: 0.777818; stroke-linejoin: miter"/>
   </g>
   <g id="patch_26">
    <path d="M 231.777955 164.6385 
L 239.556136 164.6385 
L 239.556136 126.702277 
L 231.777955 126.702277 
z
" clip-path="url(#pa9bf61fc31)" style="fill: #1f77b4; fill-opacity: 0.5; stroke: #000000; stroke-width: 0.777818; stroke-linejoin: miter"/>
   </g>
   <g id="patch_27">
    <path d="M 239.556136 164.6385 
L 247.334318 164.6385 
L 247.334318 135.435796 
L 239.556136 135.435796 
z
" clip-path="url(#pa9bf61fc31)" style="fill: #1f77b4; fill-opacity: 0.5; stroke: #000000; stroke-width: 0.777818; stroke-linejoin: miter"/>
   </g>
   <g id="patch_28">
    <path d="M 247.334318 164.6385 
L 255.1125 164.6385 
L 255.1125 142.258858 
L 247.334318 142.258858 
z
" clip-path="url(#pa9bf61fc31)" style="fill: #1f77b4; fill-opacity: 0.5; stroke: #000000; stroke-width: 0.777818; stroke-linejoin: miter"/>
   </g>
   <g id="patch_29">
    <path d="M 255.1125 164.6385 
L 262.890682 164.6385 
L 262.890682 148.808997 
L 255.1125 148.808997 
z
" clip-path="url(#pa9bf61fc31)" style="fill: #1f77b4; fill-opacity: 0.5; stroke: #000000; stroke-width: 0.777818; stroke-linejoin: miter"/>
   </g>
   <g id="patch_30">
    <path d="M 262.890682 164.6385 
L 270.668864 164.6385 
L 270.668864 155.359136 
L 262.890682 155.359136 
z
" clip-path="url(#pa9bf61fc31)" style="fill: #1f77b4; fill-opacity: 0.5; stroke: #000000; stroke-width: 0.777818; stroke-linejoin: miter"/>
   </g>
   <g id="patch_31">
    <path d="M 270.668864 164.6385 
L 278.447045 164.6385 
L 278.447045 161.090508 
L 270.668864 161.090508 
z
" clip-path="url(#pa9bf61fc31)" style="fill: #1f77b4; fill-opacity: 0.5; stroke: #000000; stroke-width: 0.777818; stroke-linejoin: miter"/>
   </g>
   <g id="patch_32">
    <path d="M 278.447045 164.6385 
L 286.225227 164.6385 
L 286.225227 163.000965 
L 278.447045 163.000965 
z
" clip-path="url(#pa9bf61fc31)" style="fill: #1f77b4; fill-opacity: 0.5; stroke: #000000; stroke-width: 0.777818; stroke-linejoin: miter"/>
   </g>
   <g id="patch_33">
    <path d="M 52.879773 164.6385 
L 60.657955 164.6385 
L 60.657955 164.6385 
L 52.879773 164.6385 
z
" clip-path="url(#pa9bf61fc31)" style="fill: #ff7f0e; fill-opacity: 0.5; stroke: #000000; stroke-width: 0.777818; stroke-linejoin: miter"/>
   </g>
   <g id="patch_34">
    <path d="M 60.657955 164.6385 
L 68.436136 164.6385 
L 68.436136 164.6385 
L 60.657955 164.6385 
z
" clip-path="url(#pa9bf61fc31)" style="fill: #ff7f0e; fill-opacity: 0.5; stroke: #000000; stroke-width: 0.777818; stroke-linejoin: miter"/>
   </g>
   <g id="patch_35">
    <path d="M 68.436136 164.6385 
L 76.214318 164.6385 
L 76.214318 164.6385 
L 68.436136 164.6385 
z
" clip-path="url(#pa9bf61fc31)" style="fill: #ff7f0e; fill-opacity: 0.5; stroke: #000000; stroke-width: 0.777818; stroke-linejoin: miter"/>
   </g>
   <g id="patch_36">
    <path d="M 76.214318 164.6385 
L 83.9925 164.6385 
L 83.9925 164.6385 
L 76.214318 164.6385 
z
" clip-path="url(#pa9bf61fc31)" style="fill: #ff7f0e; fill-opacity: 0.5; stroke: #000000; stroke-width: 0.777818; stroke-linejoin: miter"/>
   </g>
   <g id="patch_37">
    <path d="M 83.9925 164.6385 
L 91.770682 164.6385 
L 91.770682 164.6385 
L 83.9925 164.6385 
z
" clip-path="url(#pa9bf61fc31)" style="fill: #ff7f0e; fill-opacity: 0.5; stroke: #000000; stroke-width: 0.777818; stroke-linejoin: miter"/>
   </g>
   <g id="patch_38">
    <path d="M 91.770682 164.6385 
L 99.548864 164.6385 
L 99.548864 164.6385 
L 91.770682 164.6385 
z
" clip-path="url(#pa9bf61fc31)" style="fill: #ff7f0e; fill-opacity: 0.5; stroke: #000000; stroke-width: 0.777818; stroke-linejoin: miter"/>
   </g>
   <g id="patch_39">
    <path d="M 99.548864 164.6385 
L 107.327045 164.6385 
L 107.327045 164.365578 
L 99.548864 164.365578 
z
" clip-path="url(#pa9bf61fc31)" style="fill: #ff7f0e; fill-opacity: 0.5; stroke: #000000; stroke-width: 0.777818; stroke-linejoin: miter"/>
   </g>
   <g id="patch_40">
    <path d="M 107.327045 164.6385 
L 115.105227 164.6385 
L 115.105227 164.6385 
L 107.327045 164.6385 
z
" clip-path="url(#pa9bf61fc31)" style="fill: #ff7f0e; fill-opacity: 0.5; stroke: #000000; stroke-width: 0.777818; stroke-linejoin: miter"/>
   </g>
   <g id="patch_41">
    <path d="M 115.105227 164.6385 
L 122.883409 164.6385 
L 122.883409 164.6385 
L 115.105227 164.6385 
z
" clip-path="url(#pa9bf61fc31)" style="fill: #ff7f0e; fill-opacity: 0.5; stroke: #000000; stroke-width: 0.777818; stroke-linejoin: miter"/>
   </g>
   <g id="patch_42">
    <path d="M 122.883409 164.6385 
L 130.661591 164.6385 
L 130.661591 164.6385 
L 122.883409 164.6385 
z
" clip-path="url(#pa9bf61fc31)" style="fill: #ff7f0e; fill-opacity: 0.5; stroke: #000000; stroke-width: 0.777818; stroke-linejoin: miter"/>
   </g>
   <g id="patch_43">
    <path d="M 130.661591 164.6385 
L 138.439773 164.6385 
L 138.439773 163.273888 
L 130.661591 163.273888 
z
" clip-path="url(#pa9bf61fc31)" style="fill: #ff7f0e; fill-opacity: 0.5; stroke: #000000; stroke-width: 0.777818; stroke-linejoin: miter"/>
   </g>
   <g id="patch_44">
    <path d="M 138.439773 164.6385 
L 146.217955 164.6385 
L 146.217955 163.273888 
L 138.439773 163.273888 
z
" clip-path="url(#pa9bf61fc31)" style="fill: #ff7f0e; fill-opacity: 0.5; stroke: #000000; stroke-width: 0.777818; stroke-linejoin: miter"/>
   </g>
   <g id="patch_45">
    <path d="M 146.217955 164.6385 
L 153.996136 164.6385 
L 153.996136 152.084067 
L 146.217955 152.084067 
z
" clip-path="url(#pa9bf61fc31)" style="fill: #ff7f0e; fill-opacity: 0.5; stroke: #000000; stroke-width: 0.777818; stroke-linejoin: miter"/>
   </g>
   <g id="patch_46">
    <path d="M 153.996136 164.6385 
L 161.774318 164.6385 
L 161.774318 27.3585 
L 153.996136 27.3585 
z
" clip-path="url(#pa9bf61fc31)" style="fill: #ff7f0e; fill-opacity: 0.5; stroke: #000000; stroke-width: 0.777818; stroke-linejoin: miter"/>
   </g>
   <g id="patch_47">
    <path d="M 161.774318 164.6385 
L 169.5525 164.6385 
L 169.5525 98.591263 
L 161.774318 98.591263 
z
" clip-path="url(#pa9bf61fc31)" style="fill: #ff7f0e; fill-opacity: 0.5; stroke: #000000; stroke-width: 0.777818; stroke-linejoin: miter"/>
   </g>
   <g id="patch_48">
    <path d="M 169.5525 164.6385 
L 177.330682 164.6385 
L 177.330682 73.209474 
L 169.5525 73.209474 
z
" clip-path="url(#pa9bf61fc31)" style="fill: #ff7f0e; fill-opacity: 0.5; stroke: #000000; stroke-width: 0.777818; stroke-linejoin: miter"/>
   </g>
   <g id="patch_49">
    <path d="M 177.330682 164.6385 
L 185.108864 164.6385 
L 185.108864 84.94514 
L 177.330682 84.94514 
z
" clip-path="url(#pa9bf61fc31)" style="fill: #ff7f0e; fill-opacity: 0.5; stroke: #000000; stroke-width: 0.777818; stroke-linejoin: miter"/>
   </g>
   <g id="patch_50">
    <path d="M 185.108864 164.6385 
L 192.887045 164.6385 
L 192.887045 118.241681 
L 185.108864 118.241681 
z
" clip-path="url(#pa9bf61fc31)" style="fill: #ff7f0e; fill-opacity: 0.5; stroke: #000000; stroke-width: 0.777818; stroke-linejoin: miter"/>
   </g>
   <g id="patch_51">
    <path d="M 192.887045 164.6385 
L 200.665227 164.6385 
L 200.665227 130.796114 
L 192.887045 130.796114 
z
" clip-path="url(#pa9bf61fc31)" style="fill: #ff7f0e; fill-opacity: 0.5; stroke: #000000; stroke-width: 0.777818; stroke-linejoin: miter"/>
   </g>
   <g id="patch_52">
    <path d="M 200.665227 164.6385 
L 208.443409 164.6385 
L 208.443409 130.523192 
L 200.665227 130.523192 
z
" clip-path="url(#pa9bf61fc31)" style="fill: #ff7f0e; fill-opacity: 0.5; stroke: #000000; stroke-width: 0.777818; stroke-linejoin: miter"/>
   </g>
   <g id="patch_53">
    <path d="M 208.443409 164.6385 
L 216.221591 164.6385 
L 216.221591 123.973053 
L 208.443409 123.973053 
z
" clip-path="url(#pa9bf61fc31)" style="fill: #ff7f0e; fill-opacity: 0.5; stroke: #000000; stroke-width: 0.777818; stroke-linejoin: miter"/>
   </g>
   <g id="patch_54">
    <path d="M 216.221591 164.6385 
L 223.999773 164.6385 
L 223.999773 110.326929 
L 216.221591 110.326929 
z
" clip-path="url(#pa9bf61fc31)" style="fill: #ff7f0e; fill-opacity: 0.5; stroke: #000000; stroke-width: 0.777818; stroke-linejoin: miter"/>
   </g>
   <g id="patch_55">
    <path d="M 223.999773 164.6385 
L 231.777955 164.6385 
L 231.777955 120.425061 
L 223.999773 120.425061 
z
" clip-path="url(#pa9bf61fc31)" style="fill: #ff7f0e; fill-opacity: 0.5; stroke: #000000; stroke-width: 0.777818; stroke-linejoin: miter"/>
   </g>
   <g id="patch_56">
    <path d="M 231.777955 164.6385 
L 239.556136 164.6385 
L 239.556136 114.420766 
L 231.777955 114.420766 
z
" clip-path="url(#pa9bf61fc31)" style="fill: #ff7f0e; fill-opacity: 0.5; stroke: #000000; stroke-width: 0.777818; stroke-linejoin: miter"/>
   </g>
   <g id="patch_57">
    <path d="M 239.556136 164.6385 
L 247.334318 164.6385 
L 247.334318 123.154285 
L 239.556136 123.154285 
z
" clip-path="url(#pa9bf61fc31)" style="fill: #ff7f0e; fill-opacity: 0.5; stroke: #000000; stroke-width: 0.777818; stroke-linejoin: miter"/>
   </g>
   <g id="patch_58">
    <path d="M 247.334318 164.6385 
L 255.1125 164.6385 
L 255.1125 118.241681 
L 247.334318 118.241681 
z
" clip-path="url(#pa9bf61fc31)" style="fill: #ff7f0e; fill-opacity: 0.5; stroke: #000000; stroke-width: 0.777818; stroke-linejoin: miter"/>
   </g>
   <g id="patch_59">
    <path d="M 255.1125 164.6385 
L 262.890682 164.6385 
L 262.890682 116.877069 
L 255.1125 116.877069 
z
" clip-path="url(#pa9bf61fc31)" style="fill: #ff7f0e; fill-opacity: 0.5; stroke: #000000; stroke-width: 0.777818; stroke-linejoin: miter"/>
   </g>
   <g id="patch_60">
    <path d="M 262.890682 164.6385 
L 270.668864 164.6385 
L 270.668864 136.800409 
L 262.890682 136.800409 
z
" clip-path="url(#pa9bf61fc31)" style="fill: #ff7f0e; fill-opacity: 0.5; stroke: #000000; stroke-width: 0.777818; stroke-linejoin: miter"/>
   </g>
   <g id="patch_61">
    <path d="M 270.668864 164.6385 
L 278.447045 164.6385 
L 278.447045 151.265299 
L 270.668864 151.265299 
z
" clip-path="url(#pa9bf61fc31)" style="fill: #ff7f0e; fill-opacity: 0.5; stroke: #000000; stroke-width: 0.777818; stroke-linejoin: miter"/>
   </g>
   <g id="patch_62">
    <path d="M 278.447045 164.6385 
L 286.225227 164.6385 
L 286.225227 160.817585 
L 278.447045 160.817585 
z
" clip-path="url(#pa9bf61fc31)" style="fill: #ff7f0e; fill-opacity: 0.5; stroke: #000000; stroke-width: 0.777818; stroke-linejoin: miter"/>
   </g>
   <g id="matplotlib.axis_1">
    <g id="xtick_1">
     <g id="line2d_1">
      <defs>
       <path id="m9ff60d91dd" d="M 0 0 
L 0 3.5 
" style="stroke: #000000; stroke-width: 0.8"/>
      </defs>
      <g>
       <use xlink:href="#m9ff60d91dd" x="66.418416" y="164.6385" style="stroke: #000000; stroke-width: 0.8"/>
      </g>
     </g>
     <g id="text_1">
      <!-- −10 -->
      <g transform="translate(57.976541 177.71725) scale(0.08 -0.08)">
       <defs>
        <path id="DejaVuSerif-2212" d="M 678 2259 
L 4684 2259 
L 4684 1753 
L 678 1753 
L 678 2259 
z
" transform="scale(0.015625)"/>
        <path id="DejaVuSerif-31" d="M 909 0 
L 909 331 
L 1722 331 
L 1722 4213 
L 781 3603 
L 781 4013 
L 1919 4750 
L 2350 4750 
L 2350 331 
L 3163 331 
L 3163 0 
L 909 0 
z
" transform="scale(0.015625)"/>
        <path id="DejaVuSerif-30" d="M 2034 219 
Q 2513 219 2750 744 
Q 2988 1269 2988 2328 
Q 2988 3391 2750 3916 
Q 2513 4441 2034 4441 
Q 1556 4441 1318 3916 
Q 1081 3391 1081 2328 
Q 1081 1269 1318 744 
Q 1556 219 2034 219 
z
M 2034 -91 
Q 1275 -91 848 546 
Q 422 1184 422 2328 
Q 422 3475 848 4112 
Q 1275 4750 2034 4750 
Q 2797 4750 3222 4112 
Q 3647 3475 3647 2328 
Q 3647 1184 3222 546 
Q 2797 -91 2034 -91 
z
" transform="scale(0.015625)"/>
       </defs>
       <use xlink:href="#DejaVuSerif-2212"/>
       <use xlink:href="#DejaVuSerif-31" x="83.789062"/>
       <use xlink:href="#DejaVuSerif-30" x="147.412109"/>
      </g>
     </g>
    </g>
    <g id="xtick_2">
     <g id="line2d_2">
      <g>
       <use xlink:href="#m9ff60d91dd" x="95.659167" y="164.6385" style="stroke: #000000; stroke-width: 0.8"/>
      </g>
     </g>
     <g id="text_2">
      <!-- −5 -->
      <g transform="translate(89.762292 177.71725) scale(0.08 -0.08)">
       <defs>
        <path id="DejaVuSerif-35" d="M 3219 4666 
L 3219 4153 
L 1081 4153 
L 1081 2816 
Q 1244 2928 1461 2984 
Q 1678 3041 1947 3041 
Q 2703 3041 3140 2622 
Q 3578 2203 3578 1478 
Q 3578 738 3136 323 
Q 2694 -91 1894 -91 
Q 1572 -91 1234 -12 
Q 897 66 544 225 
L 544 1131 
L 897 1131 
Q 925 688 1179 453 
Q 1434 219 1894 219 
Q 2388 219 2653 544 
Q 2919 869 2919 1478 
Q 2919 2084 2655 2407 
Q 2391 2731 1894 2731 
Q 1613 2731 1398 2631 
Q 1184 2531 1019 2322 
L 750 2322 
L 750 4666 
L 3219 4666 
z
" transform="scale(0.015625)"/>
       </defs>
       <use xlink:href="#DejaVuSerif-2212"/>
       <use xlink:href="#DejaVuSerif-35" x="83.789062"/>
      </g>
     </g>
    </g>
    <g id="xtick_3">
     <g id="line2d_3">
      <g>
       <use xlink:href="#m9ff60d91dd" x="124.899918" y="164.6385" style="stroke: #000000; stroke-width: 0.8"/>
      </g>
     </g>
     <g id="text_3">
      <!-- 0 -->
      <g transform="translate(122.354918 177.71725) scale(0.08 -0.08)">
       <use xlink:href="#DejaVuSerif-30"/>
      </g>
     </g>
    </g>
    <g id="xtick_4">
     <g id="line2d_4">
      <g>
       <use xlink:href="#m9ff60d91dd" x="154.140668" y="164.6385" style="stroke: #000000; stroke-width: 0.8"/>
      </g>
     </g>
     <g id="text_4">
      <!-- 5 -->
      <g transform="translate(151.595668 177.71725) scale(0.08 -0.08)">
       <use xlink:href="#DejaVuSerif-35"/>
      </g>
     </g>
    </g>
    <g id="xtick_5">
     <g id="line2d_5">
      <g>
       <use xlink:href="#m9ff60d91dd" x="183.381419" y="164.6385" style="stroke: #000000; stroke-width: 0.8"/>
      </g>
     </g>
     <g id="text_5">
      <!-- 10 -->
      <g transform="translate(178.291419 177.71725) scale(0.08 -0.08)">
       <use xlink:href="#DejaVuSerif-31"/>
       <use xlink:href="#DejaVuSerif-30" x="63.623047"/>
      </g>
     </g>
    </g>
    <g id="xtick_6">
     <g id="line2d_6">
      <g>
       <use xlink:href="#m9ff60d91dd" x="212.62217" y="164.6385" style="stroke: #000000; stroke-width: 0.8"/>
      </g>
     </g>
     <g id="text_6">
      <!-- 15 -->
      <g transform="translate(207.53217 177.71725) scale(0.08 -0.08)">
       <use xlink:href="#DejaVuSerif-31"/>
       <use xlink:href="#DejaVuSerif-35" x="63.623047"/>
      </g>
     </g>
    </g>
    <g id="xtick_7">
     <g id="line2d_7">
      <g>
       <use xlink:href="#m9ff60d91dd" x="241.86292" y="164.6385" style="stroke: #000000; stroke-width: 0.8"/>
      </g>
     </g>
     <g id="text_7">
      <!-- 20 -->
      <g transform="translate(236.77292 177.71725) scale(0.08 -0.08)">
       <defs>
        <path id="DejaVuSerif-32" d="M 819 3553 
L 469 3553 
L 469 4384 
Q 803 4563 1142 4656 
Q 1481 4750 1806 4750 
Q 2534 4750 2956 4397 
Q 3378 4044 3378 3438 
Q 3378 2753 2422 1800 
Q 2347 1728 2309 1691 
L 1131 513 
L 3078 513 
L 3078 1088 
L 3444 1088 
L 3444 0 
L 434 0 
L 434 341 
L 1850 1753 
Q 2319 2222 2519 2614 
Q 2719 3006 2719 3438 
Q 2719 3909 2473 4175 
Q 2228 4441 1797 4441 
Q 1350 4441 1106 4219 
Q 863 3997 819 3553 
z
" transform="scale(0.015625)"/>
       </defs>
       <use xlink:href="#DejaVuSerif-32"/>
       <use xlink:href="#DejaVuSerif-30" x="63.623047"/>
      </g>
     </g>
    </g>
    <g id="xtick_8">
     <g id="line2d_8">
      <g>
       <use xlink:href="#m9ff60d91dd" x="271.103671" y="164.6385" style="stroke: #000000; stroke-width: 0.8"/>
      </g>
     </g>
     <g id="text_8">
      <!-- 25 -->
      <g transform="translate(266.013671 177.71725) scale(0.08 -0.08)">
       <use xlink:href="#DejaVuSerif-32"/>
       <use xlink:href="#DejaVuSerif-35" x="63.623047"/>
      </g>
     </g>
    </g>
    <g id="text_9">
     <!-- SNR [dB] -->
     <g transform="translate(150.408125 189.45975) scale(0.08 -0.08)">
      <defs>
       <path id="DejaVuSerif-53" d="M 594 225 
L 594 1288 
L 953 1284 
Q 969 753 1261 498 
Q 1553 244 2150 244 
Q 2706 244 2998 464 
Q 3291 684 3291 1106 
Q 3291 1444 3114 1625 
Q 2938 1806 2369 1978 
L 1753 2163 
Q 1084 2366 811 2669 
Q 538 2972 538 3500 
Q 538 4094 959 4422 
Q 1381 4750 2144 4750 
Q 2469 4750 2856 4679 
Q 3244 4609 3681 4475 
L 3681 3481 
L 3328 3481 
Q 3275 3975 2998 4195 
Q 2722 4416 2156 4416 
Q 1663 4416 1405 4214 
Q 1147 4013 1147 3628 
Q 1147 3294 1340 3103 
Q 1534 2913 2163 2725 
L 2741 2553 
Q 3375 2363 3645 2067 
Q 3916 1772 3916 1275 
Q 3916 597 3481 253 
Q 3047 -91 2188 -91 
Q 1803 -91 1404 -12 
Q 1006 66 594 225 
z
" transform="scale(0.015625)"/>
       <path id="DejaVuSerif-4e" d="M 313 0 
L 313 331 
L 941 331 
L 941 4331 
L 313 4331 
L 313 4666 
L 1509 4666 
L 4306 984 
L 4306 4331 
L 3681 4331 
L 3681 4666 
L 5319 4666 
L 5319 4331 
L 4691 4331 
L 4691 -91 
L 4313 -91 
L 1325 3841 
L 1325 331 
L 1953 331 
L 1953 0 
L 313 0 
z
" transform="scale(0.015625)"/>
       <path id="DejaVuSerif-52" d="M 3066 2316 
Q 3284 2256 3442 2114 
Q 3600 1972 3725 1716 
L 4403 331 
L 4972 331 
L 4972 0 
L 3872 0 
L 3144 1484 
Q 2934 1916 2759 2042 
Q 2584 2169 2278 2169 
L 1581 2169 
L 1581 331 
L 2241 331 
L 2241 0 
L 353 0 
L 353 331 
L 947 331 
L 947 4331 
L 353 4331 
L 353 4666 
L 2719 4666 
Q 3400 4666 3770 4341 
Q 4141 4016 4141 3419 
Q 4141 2938 3870 2661 
Q 3600 2384 3066 2316 
z
M 1581 2503 
L 2503 2503 
Q 2975 2503 3200 2726 
Q 3425 2950 3425 3419 
Q 3425 3888 3200 4109 
Q 2975 4331 2503 4331 
L 1581 4331 
L 1581 2503 
z
" transform="scale(0.015625)"/>
       <path id="DejaVuSerif-20" transform="scale(0.015625)"/>
       <path id="DejaVuSerif-5b" d="M 550 4863 
L 2003 4863 
L 2003 4531 
L 1147 4531 
L 1147 -513 
L 2003 -513 
L 2003 -844 
L 550 -844 
L 550 4863 
z
" transform="scale(0.015625)"/>
       <path id="DejaVuSerif-64" d="M 3359 331 
L 3909 331 
L 3909 0 
L 2784 0 
L 2784 519 
Q 2616 206 2355 57 
Q 2094 -91 1709 -91 
Q 1097 -91 708 395 
Q 319 881 319 1663 
Q 319 2444 706 2928 
Q 1094 3413 1709 3413 
Q 2094 3413 2355 3264 
Q 2616 3116 2784 2803 
L 2784 4531 
L 2241 4531 
L 2241 4863 
L 3359 4863 
L 3359 331 
z
M 2784 1497 
L 2784 1825 
Q 2784 2422 2554 2737 
Q 2325 3053 1888 3053 
Q 1444 3053 1217 2703 
Q 991 2353 991 1663 
Q 991 975 1217 622 
Q 1444 269 1888 269 
Q 2325 269 2554 583 
Q 2784 897 2784 1497 
z
" transform="scale(0.015625)"/>
       <path id="DejaVuSerif-42" d="M 1581 331 
L 2516 331 
Q 3078 331 3337 575 
Q 3597 819 3597 1350 
Q 3597 1878 3339 2120 
Q 3081 2363 2516 2363 
L 1581 2363 
L 1581 331 
z
M 1581 2694 
L 2375 2694 
Q 2888 2694 3123 2891 
Q 3359 3088 3359 3513 
Q 3359 3941 3123 4136 
Q 2888 4331 2375 4331 
L 1581 4331 
L 1581 2694 
z
M 353 0 
L 353 331 
L 947 331 
L 947 4331 
L 353 4331 
L 353 4666 
L 2656 4666 
Q 3363 4666 3720 4377 
Q 4078 4088 4078 3513 
Q 4078 3097 3829 2850 
Q 3581 2603 3103 2547 
Q 3697 2472 4005 2167 
Q 4313 1863 4313 1350 
Q 4313 656 3875 328 
Q 3438 0 2509 0 
L 353 0 
z
" transform="scale(0.015625)"/>
       <path id="DejaVuSerif-5d" d="M 1947 4863 
L 1947 -844 
L 494 -844 
L 494 -513 
L 1350 -513 
L 1350 4531 
L 494 4531 
L 494 4863 
L 1947 4863 
z
" transform="scale(0.015625)"/>
      </defs>
      <use xlink:href="#DejaVuSerif-53"/>
      <use xlink:href="#DejaVuSerif-4e" x="68.505859"/>
      <use xlink:href="#DejaVuSerif-52" x="156.005859"/>
      <use xlink:href="#DejaVuSerif-20" x="231.298828"/>
      <use xlink:href="#DejaVuSerif-5b" x="263.085938"/>
      <use xlink:href="#DejaVuSerif-64" x="302.099609"/>
      <use xlink:href="#DejaVuSerif-42" x="366.113281"/>
      <use xlink:href="#DejaVuSerif-5d" x="439.599609"/>
     </g>
    </g>
   </g>
   <g id="matplotlib.axis_2">
    <g id="ytick_1">
     <g id="line2d_9">
      <defs>
       <path id="mead6d419ca" d="M 0 0 
L -3.5 0 
" style="stroke: #000000; stroke-width: 0.8"/>
      </defs>
      <g>
       <use xlink:href="#mead6d419ca" x="41.2125" y="164.6385" style="stroke: #000000; stroke-width: 0.8"/>
      </g>
     </g>
     <g id="text_10">
      <!-- 0 -->
      <g transform="translate(29.1225 167.677875) scale(0.08 -0.08)">
       <use xlink:href="#DejaVuSerif-30"/>
      </g>
     </g>
    </g>
    <g id="ytick_2">
     <g id="line2d_10">
      <g>
       <use xlink:href="#mead6d419ca" x="41.2125" y="137.346253" style="stroke: #000000; stroke-width: 0.8"/>
      </g>
     </g>
     <g id="text_11">
      <!-- 100 -->
      <g transform="translate(18.9425 140.385628) scale(0.08 -0.08)">
       <use xlink:href="#DejaVuSerif-31"/>
       <use xlink:href="#DejaVuSerif-30" x="63.623047"/>
       <use xlink:href="#DejaVuSerif-30" x="127.246094"/>
      </g>
     </g>
    </g>
    <g id="ytick_3">
     <g id="line2d_11">
      <g>
       <use xlink:href="#mead6d419ca" x="41.2125" y="110.054007" style="stroke: #000000; stroke-width: 0.8"/>
      </g>
     </g>
     <g id="text_12">
      <!-- 200 -->
      <g transform="translate(18.9425 113.093382) scale(0.08 -0.08)">
       <use xlink:href="#DejaVuSerif-32"/>
       <use xlink:href="#DejaVuSerif-30" x="63.623047"/>
       <use xlink:href="#DejaVuSerif-30" x="127.246094"/>
      </g>
     </g>
    </g>
    <g id="ytick_4">
     <g id="line2d_12">
      <g>
       <use xlink:href="#mead6d419ca" x="41.2125" y="82.76176" style="stroke: #000000; stroke-width: 0.8"/>
      </g>
     </g>
     <g id="text_13">
      <!-- 300 -->
      <g transform="translate(18.9425 85.801135) scale(0.08 -0.08)">
       <defs>
        <path id="DejaVuSerif-33" d="M 622 4469 
Q 988 4606 1323 4678 
Q 1659 4750 1953 4750 
Q 2638 4750 3022 4454 
Q 3406 4159 3406 3634 
Q 3406 3213 3140 2930 
Q 2875 2647 2388 2547 
Q 2963 2466 3280 2130 
Q 3597 1794 3597 1259 
Q 3597 606 3158 257 
Q 2719 -91 1894 -91 
Q 1528 -91 1179 -12 
Q 831 66 488 225 
L 488 1131 
L 838 1131 
Q 869 681 1141 450 
Q 1413 219 1906 219 
Q 2384 219 2661 495 
Q 2938 772 2938 1253 
Q 2938 1803 2653 2086 
Q 2369 2369 1819 2369 
L 1522 2369 
L 1522 2688 
L 1678 2688 
Q 2225 2688 2498 2914 
Q 2772 3141 2772 3597 
Q 2772 4006 2547 4223 
Q 2322 4441 1900 4441 
Q 1478 4441 1245 4241 
Q 1013 4041 972 3647 
L 622 3647 
L 622 4469 
z
" transform="scale(0.015625)"/>
       </defs>
       <use xlink:href="#DejaVuSerif-33"/>
       <use xlink:href="#DejaVuSerif-30" x="63.623047"/>
       <use xlink:href="#DejaVuSerif-30" x="127.246094"/>
      </g>
     </g>
    </g>
    <g id="ytick_5">
     <g id="line2d_13">
      <g>
       <use xlink:href="#mead6d419ca" x="41.2125" y="55.469514" style="stroke: #000000; stroke-width: 0.8"/>
      </g>
     </g>
     <g id="text_14">
      <!-- 400 -->
      <g transform="translate(18.9425 58.508889) scale(0.08 -0.08)">
       <defs>
        <path id="DejaVuSerif-34" d="M 2234 1581 
L 2234 4063 
L 641 1581 
L 2234 1581 
z
M 3609 0 
L 1484 0 
L 1484 331 
L 2234 331 
L 2234 1247 
L 197 1247 
L 197 1588 
L 2241 4750 
L 2859 4750 
L 2859 1581 
L 3750 1581 
L 3750 1247 
L 2859 1247 
L 2859 331 
L 3609 331 
L 3609 0 
z
" transform="scale(0.015625)"/>
       </defs>
       <use xlink:href="#DejaVuSerif-34"/>
       <use xlink:href="#DejaVuSerif-30" x="63.623047"/>
       <use xlink:href="#DejaVuSerif-30" x="127.246094"/>
      </g>
     </g>
    </g>
    <g id="ytick_6">
     <g id="line2d_14">
      <g>
       <use xlink:href="#mead6d419ca" x="41.2125" y="28.177267" style="stroke: #000000; stroke-width: 0.8"/>
      </g>
     </g>
     <g id="text_15">
      <!-- 500 -->
      <g transform="translate(18.9425 31.216642) scale(0.08 -0.08)">
       <use xlink:href="#DejaVuSerif-35"/>
       <use xlink:href="#DejaVuSerif-30" x="63.623047"/>
       <use xlink:href="#DejaVuSerif-30" x="127.246094"/>
      </g>
     </g>
    </g>
    <g id="text_16">
     <!-- Number of Speech Samples -->
     <g transform="translate(13.27875 149.008375) rotate(-90) scale(0.08 -0.08)">
      <defs>
       <path id="DejaVuSerif-75" d="M 2266 3322 
L 3341 3322 
L 3341 331 
L 3884 331 
L 3884 0 
L 2766 0 
L 2766 588 
Q 2606 256 2353 82 
Q 2100 -91 1766 -91 
Q 1213 -91 952 223 
Q 691 538 691 1209 
L 691 2988 
L 172 2988 
L 172 3322 
L 1269 3322 
L 1269 1388 
Q 1269 781 1417 556 
Q 1566 331 1947 331 
Q 2347 331 2556 625 
Q 2766 919 2766 1478 
L 2766 2988 
L 2266 2988 
L 2266 3322 
z
" transform="scale(0.015625)"/>
       <path id="DejaVuSerif-6d" d="M 3316 2675 
Q 3481 3041 3739 3227 
Q 3997 3413 4341 3413 
Q 4863 3413 5119 3089 
Q 5375 2766 5375 2113 
L 5375 331 
L 5894 331 
L 5894 0 
L 4300 0 
L 4300 331 
L 4800 331 
L 4800 2047 
Q 4800 2556 4650 2772 
Q 4500 2988 4153 2988 
Q 3769 2988 3567 2697 
Q 3366 2406 3366 1850 
L 3366 331 
L 3866 331 
L 3866 0 
L 2291 0 
L 2291 331 
L 2791 331 
L 2791 2069 
Q 2791 2566 2641 2777 
Q 2491 2988 2144 2988 
Q 1759 2988 1557 2697 
Q 1356 2406 1356 1850 
L 1356 331 
L 1856 331 
L 1856 0 
L 263 0 
L 263 331 
L 781 331 
L 781 2994 
L 231 2994 
L 231 3322 
L 1356 3322 
L 1356 2731 
Q 1516 3063 1762 3238 
Q 2009 3413 2322 3413 
Q 2709 3413 2968 3220 
Q 3228 3028 3316 2675 
z
" transform="scale(0.015625)"/>
       <path id="DejaVuSerif-62" d="M 738 331 
L 738 4531 
L 184 4531 
L 184 4863 
L 1313 4863 
L 1313 2803 
Q 1481 3116 1742 3264 
Q 2003 3413 2388 3413 
Q 3000 3413 3387 2928 
Q 3775 2444 3775 1663 
Q 3775 881 3387 395 
Q 3000 -91 2388 -91 
Q 2003 -91 1742 57 
Q 1481 206 1313 519 
L 1313 0 
L 184 0 
L 184 331 
L 738 331 
z
M 1313 1497 
Q 1313 897 1542 583 
Q 1772 269 2209 269 
Q 2650 269 2876 622 
Q 3103 975 3103 1663 
Q 3103 2353 2876 2703 
Q 2650 3053 2209 3053 
Q 1772 3053 1542 2737 
Q 1313 2422 1313 1825 
L 1313 1497 
z
" transform="scale(0.015625)"/>
       <path id="DejaVuSerif-65" d="M 3469 1600 
L 991 1600 
L 991 1575 
Q 991 903 1244 561 
Q 1497 219 1991 219 
Q 2369 219 2611 417 
Q 2853 616 2950 1006 
L 3413 1006 
Q 3275 459 2904 184 
Q 2534 -91 1931 -91 
Q 1203 -91 761 389 
Q 319 869 319 1663 
Q 319 2450 753 2931 
Q 1188 3413 1894 3413 
Q 2647 3413 3050 2948 
Q 3453 2484 3469 1600 
z
M 2791 1931 
Q 2772 2513 2545 2808 
Q 2319 3103 1894 3103 
Q 1497 3103 1269 2806 
Q 1041 2509 991 1931 
L 2791 1931 
z
" transform="scale(0.015625)"/>
       <path id="DejaVuSerif-72" d="M 3059 3328 
L 3059 2497 
L 2728 2497 
Q 2713 2744 2591 2866 
Q 2469 2988 2234 2988 
Q 1809 2988 1582 2694 
Q 1356 2400 1356 1850 
L 1356 331 
L 2022 331 
L 2022 0 
L 263 0 
L 263 331 
L 781 331 
L 781 2994 
L 231 2994 
L 231 3322 
L 1356 3322 
L 1356 2731 
Q 1525 3078 1790 3245 
Q 2056 3413 2438 3413 
Q 2578 3413 2733 3391 
Q 2888 3369 3059 3328 
z
" transform="scale(0.015625)"/>
       <path id="DejaVuSerif-6f" d="M 1925 219 
Q 2388 219 2623 584 
Q 2859 950 2859 1663 
Q 2859 2375 2623 2739 
Q 2388 3103 1925 3103 
Q 1463 3103 1227 2739 
Q 991 2375 991 1663 
Q 991 950 1228 584 
Q 1466 219 1925 219 
z
M 1925 -91 
Q 1200 -91 759 389 
Q 319 869 319 1663 
Q 319 2456 758 2934 
Q 1197 3413 1925 3413 
Q 2653 3413 3092 2934 
Q 3531 2456 3531 1663 
Q 3531 869 3092 389 
Q 2653 -91 1925 -91 
z
" transform="scale(0.015625)"/>
       <path id="DejaVuSerif-66" d="M 2753 4078 
L 2450 4078 
Q 2447 4313 2317 4434 
Q 2188 4556 1941 4556 
Q 1619 4556 1487 4379 
Q 1356 4203 1356 3750 
L 1356 3322 
L 2284 3322 
L 2284 2988 
L 1356 2988 
L 1356 331 
L 2094 331 
L 2094 0 
L 231 0 
L 231 331 
L 781 331 
L 781 2988 
L 231 2988 
L 231 3322 
L 781 3322 
L 781 3738 
Q 781 4294 1070 4578 
Q 1359 4863 1919 4863 
Q 2128 4863 2337 4825 
Q 2547 4788 2753 4709 
L 2753 4078 
z
" transform="scale(0.015625)"/>
       <path id="DejaVuSerif-70" d="M 1313 1825 
L 1313 1497 
Q 1313 897 1542 583 
Q 1772 269 2209 269 
Q 2650 269 2876 622 
Q 3103 975 3103 1663 
Q 3103 2353 2876 2703 
Q 2650 3053 2209 3053 
Q 1772 3053 1542 2737 
Q 1313 2422 1313 1825 
z
M 738 2988 
L 184 2988 
L 184 3322 
L 1313 3322 
L 1313 2803 
Q 1481 3116 1742 3264 
Q 2003 3413 2388 3413 
Q 3000 3413 3387 2928 
Q 3775 2444 3775 1663 
Q 3775 881 3387 395 
Q 3000 -91 2388 -91 
Q 2003 -91 1742 57 
Q 1481 206 1313 519 
L 1313 -997 
L 1856 -997 
L 1856 -1331 
L 184 -1331 
L 184 -997 
L 738 -997 
L 738 2988 
z
" transform="scale(0.015625)"/>
       <path id="DejaVuSerif-63" d="M 3291 997 
Q 3169 466 2822 187 
Q 2475 -91 1925 -91 
Q 1200 -91 759 389 
Q 319 869 319 1663 
Q 319 2459 759 2936 
Q 1200 3413 1925 3413 
Q 2241 3413 2553 3339 
Q 2866 3266 3181 3116 
L 3181 2266 
L 2847 2266 
Q 2781 2703 2561 2903 
Q 2341 3103 1931 3103 
Q 1466 3103 1228 2742 
Q 991 2381 991 1663 
Q 991 944 1227 581 
Q 1463 219 1931 219 
Q 2303 219 2525 412 
Q 2747 606 2828 997 
L 3291 997 
z
" transform="scale(0.015625)"/>
       <path id="DejaVuSerif-68" d="M 263 0 
L 263 331 
L 781 331 
L 781 4531 
L 231 4531 
L 231 4863 
L 1356 4863 
L 1356 2731 
Q 1516 3069 1770 3241 
Q 2025 3413 2363 3413 
Q 2913 3413 3172 3097 
Q 3431 2781 3431 2113 
L 3431 331 
L 3944 331 
L 3944 0 
L 2356 0 
L 2356 331 
L 2853 331 
L 2853 1931 
Q 2853 2541 2704 2764 
Q 2556 2988 2175 2988 
Q 1775 2988 1565 2697 
Q 1356 2406 1356 1850 
L 1356 331 
L 1856 331 
L 1856 0 
L 263 0 
z
" transform="scale(0.015625)"/>
       <path id="DejaVuSerif-61" d="M 2547 1044 
L 2547 1747 
L 1806 1747 
Q 1378 1747 1168 1562 
Q 959 1378 959 997 
Q 959 650 1171 447 
Q 1384 244 1747 244 
Q 2106 244 2326 466 
Q 2547 688 2547 1044 
z
M 3122 2075 
L 3122 331 
L 3634 331 
L 3634 0 
L 2547 0 
L 2547 359 
Q 2356 128 2106 18 
Q 1856 -91 1522 -91 
Q 969 -91 644 203 
Q 319 497 319 997 
Q 319 1513 691 1797 
Q 1063 2081 1741 2081 
L 2547 2081 
L 2547 2309 
Q 2547 2688 2317 2895 
Q 2088 3103 1672 3103 
Q 1328 3103 1125 2947 
Q 922 2791 872 2484 
L 575 2484 
L 575 3156 
Q 875 3284 1158 3348 
Q 1441 3413 1709 3413 
Q 2400 3413 2761 3070 
Q 3122 2728 3122 2075 
z
" transform="scale(0.015625)"/>
       <path id="DejaVuSerif-6c" d="M 1313 331 
L 1856 331 
L 1856 0 
L 184 0 
L 184 331 
L 738 331 
L 738 4531 
L 184 4531 
L 184 4863 
L 1313 4863 
L 1313 331 
z
" transform="scale(0.015625)"/>
       <path id="DejaVuSerif-73" d="M 359 184 
L 359 959 
L 691 959 
Q 703 588 923 403 
Q 1144 219 1575 219 
Q 1963 219 2166 364 
Q 2369 509 2369 788 
Q 2369 1006 2220 1140 
Q 2072 1275 1594 1428 
L 1178 1569 
Q 750 1706 558 1912 
Q 366 2119 366 2438 
Q 366 2894 700 3153 
Q 1034 3413 1625 3413 
Q 1888 3413 2178 3344 
Q 2469 3275 2778 3144 
L 2778 2419 
L 2447 2419 
Q 2434 2741 2221 2922 
Q 2009 3103 1644 3103 
Q 1281 3103 1095 2975 
Q 909 2847 909 2591 
Q 909 2381 1050 2254 
Q 1191 2128 1613 1997 
L 2069 1856 
Q 2541 1709 2748 1489 
Q 2956 1269 2956 922 
Q 2956 450 2595 179 
Q 2234 -91 1600 -91 
Q 1278 -91 972 -22 
Q 666 47 359 184 
z
" transform="scale(0.015625)"/>
      </defs>
      <use xlink:href="#DejaVuSerif-4e"/>
      <use xlink:href="#DejaVuSerif-75" x="87.5"/>
      <use xlink:href="#DejaVuSerif-6d" x="151.904297"/>
      <use xlink:href="#DejaVuSerif-62" x="246.728516"/>
      <use xlink:href="#DejaVuSerif-65" x="310.742188"/>
      <use xlink:href="#DejaVuSerif-72" x="369.921875"/>
      <use xlink:href="#DejaVuSerif-20" x="417.724609"/>
      <use xlink:href="#DejaVuSerif-6f" x="449.511719"/>
      <use xlink:href="#DejaVuSerif-66" x="509.716797"/>
      <use xlink:href="#DejaVuSerif-20" x="546.728516"/>
      <use xlink:href="#DejaVuSerif-53" x="578.515625"/>
      <use xlink:href="#DejaVuSerif-70" x="647.021484"/>
      <use xlink:href="#DejaVuSerif-65" x="711.035156"/>
      <use xlink:href="#DejaVuSerif-65" x="770.214844"/>
      <use xlink:href="#DejaVuSerif-63" x="829.394531"/>
      <use xlink:href="#DejaVuSerif-68" x="885.400391"/>
      <use xlink:href="#DejaVuSerif-20" x="949.804688"/>
      <use xlink:href="#DejaVuSerif-53" x="981.591797"/>
      <use xlink:href="#DejaVuSerif-61" x="1050.097656"/>
      <use xlink:href="#DejaVuSerif-6d" x="1109.716797"/>
      <use xlink:href="#DejaVuSerif-70" x="1204.541016"/>
      <use xlink:href="#DejaVuSerif-6c" x="1268.554688"/>
      <use xlink:href="#DejaVuSerif-65" x="1300.537109"/>
      <use xlink:href="#DejaVuSerif-73" x="1359.716797"/>
     </g>
    </g>
   </g>
   <g id="line2d_15">
    <path d="M 52.879773 164.452128 
L 62.260495 164.459528 
L 73.986397 164.519434 
L 79.849348 164.276793 
L 95.093021 163.400665 
L 124.407776 163.473658 
L 129.098137 163.295645 
L 132.615908 162.934667 
L 134.961088 162.461946 
L 137.306269 161.65406 
L 138.478859 161.04576 
L 139.651449 160.232392 
L 140.82404 159.140592 
L 141.99663 157.678547 
L 143.16922 155.738461 
L 144.34181 153.203118 
L 145.5144 149.957199 
L 146.686991 145.903194 
L 147.859581 140.980563 
L 149.032171 135.185456 
L 150.204761 128.587182 
L 152.549942 113.665675 
L 154.895122 98.267744 
L 156.067712 91.190851 
L 157.240303 84.911782 
L 158.412893 79.62316 
L 159.585483 75.410861 
L 160.758073 72.248201 
L 161.930664 70.009297 
L 163.103254 68.498665 
L 164.275844 67.490578 
L 166.621024 66.166652 
L 171.311385 63.933052 
L 172.483976 63.700013 
L 173.656566 63.817638 
L 174.829156 64.388956 
L 176.001746 65.48561 
L 177.174336 67.14012 
L 178.346927 69.344437 
L 179.519517 72.053418 
L 180.692107 75.191548 
L 183.037288 82.351939 
L 186.555058 93.611208 
L 188.900239 100.282642 
L 190.072829 103.153462 
L 191.245419 105.664646 
L 192.418009 107.803076 
L 193.5906 109.572008 
L 194.76319 110.987473 
L 195.93578 112.074427 
L 197.10837 112.863321 
L 198.28096 113.387522 
L 199.453551 113.681694 
L 200.626141 113.780945 
L 201.798731 113.720296 
L 204.143912 113.254715 
L 207.661682 112.127061 
L 213.524633 110.15167 
L 215.869814 109.547775 
L 218.214994 109.272087 
L 219.387585 109.322393 
L 220.560175 109.527484 
L 221.732765 109.901061 
L 222.905355 110.448614 
L 224.077945 111.167826 
L 225.250536 112.0501 
L 227.595716 114.25015 
L 229.940897 116.925128 
L 232.286077 119.939203 
L 240.494209 130.971375 
L 242.839389 133.716318 
L 245.184569 136.185605 
L 248.70234 139.517255 
L 262.773423 152.125469 
L 266.291193 154.830768 
L 269.808964 157.286869 
L 273.326735 159.485249 
L 275.671915 160.731006 
L 278.017096 161.739626 
L 280.362276 162.499513 
L 282.707457 163.047629 
L 286.225227 163.6138 
L 286.225227 163.6138 
" clip-path="url(#pa9bf61fc31)" style="fill: none; stroke: #1f77b4; stroke-width: 1.5; stroke-linecap: square"/>
   </g>
   <g id="line2d_16">
    <path d="M 102.880058 164.522355 
L 122.046916 164.450442 
L 127.523161 164.129776 
L 131.173991 163.714151 
L 132.999406 163.358426 
L 134.824821 162.804002 
L 136.650236 161.919466 
L 137.562944 161.296785 
L 138.475651 160.516065 
L 139.388359 159.544549 
L 140.301066 158.346615 
L 141.213774 156.884819 
L 142.126482 155.121393 
L 143.039189 153.020212 
L 143.951897 150.549218 
L 144.864604 147.683189 
L 146.690019 140.717162 
L 148.515434 132.167425 
L 150.340849 122.351465 
L 154.904387 96.719737 
L 156.729802 88.241081 
L 157.64251 84.743958 
L 158.555217 81.807313 
L 159.467925 79.448389 
L 160.380632 77.658378 
L 161.29334 76.404418 
L 162.206047 75.633413 
L 163.118755 75.277267 
L 164.031462 75.258992 
L 164.94417 75.499094 
L 166.769585 76.459379 
L 172.24583 80.126214 
L 174.071245 81.506991 
L 175.89666 83.280713 
L 177.722075 85.658036 
L 179.54749 88.758712 
L 181.372906 92.582443 
L 183.198321 97.012595 
L 186.849151 106.811324 
L 189.587273 113.936674 
L 191.412688 118.123712 
L 193.238103 121.659911 
L 195.063519 124.452146 
L 195.976226 125.558992 
L 196.888934 126.47508 
L 197.801641 127.205886 
L 198.714349 127.759366 
L 199.627056 128.145413 
L 200.539764 128.375334 
L 201.452471 128.46137 
L 202.365179 128.416267 
L 204.190594 127.984002 
L 206.016009 127.178234 
L 207.841424 126.090152 
L 210.579547 124.103688 
L 217.881207 118.469301 
L 219.706622 117.385496 
L 221.532037 116.556005 
L 223.357452 116.005899 
L 225.182867 115.731859 
L 227.008282 115.708141 
L 228.833697 115.896656 
L 231.57182 116.485945 
L 235.22265 117.61594 
L 238.87348 118.768433 
L 241.611603 119.392198 
L 244.349725 119.696444 
L 247.087848 119.733724 
L 250.738678 119.751006 
L 252.564093 119.968956 
L 254.389508 120.474267 
L 256.214923 121.367549 
L 258.040338 122.72398 
L 259.865753 124.580223 
L 261.691169 126.92589 
L 263.516584 129.702399 
L 266.254706 134.450096 
L 272.643659 146.043771 
L 275.381782 150.41099 
L 277.207197 152.988745 
L 279.032612 155.281826 
L 280.858027 157.287169 
L 282.683442 159.006955 
L 284.508857 160.447203 
L 284.508857 160.447203 
" clip-path="url(#pa9bf61fc31)" style="fill: none; stroke: #ff7f0e; stroke-width: 1.5; stroke-linecap: square"/>
   </g>
   <g id="patch_63">
    <path d="M 41.2125 164.6385 
L 41.2125 20.4945 
" style="fill: none; stroke: #000000; stroke-width: 0.8; stroke-linejoin: miter; stroke-linecap: square"/>
   </g>
   <g id="patch_64">
    <path d="M 297.8925 164.6385 
L 297.8925 20.4945 
" style="fill: none; stroke: #000000; stroke-width: 0.8; stroke-linejoin: miter; stroke-linecap: square"/>
   </g>
   <g id="patch_65">
    <path d="M 41.2125 164.6385 
L 297.8925 164.6385 
" style="fill: none; stroke: #000000; stroke-width: 0.8; stroke-linejoin: miter; stroke-linecap: square"/>
   </g>
   <g id="patch_66">
    <path d="M 41.2125 20.4945 
L 297.8925 20.4945 
" style="fill: none; stroke: #000000; stroke-width: 0.8; stroke-linejoin: miter; stroke-linecap: square"/>
   </g>
   <g id="text_17">
    <!-- SNR Distribution - Raw and Facebook Denoiser -->
    <g transform="translate(53.77875 14.4945) scale(0.096 -0.096)">
     <defs>
      <path id="DejaVuSerif-44" d="M 1581 331 
L 2163 331 
Q 3072 331 3558 850 
Q 4044 1369 4044 2338 
Q 4044 3306 3559 3818 
Q 3075 4331 2163 4331 
L 1581 4331 
L 1581 331 
z
M 353 0 
L 353 331 
L 947 331 
L 947 4331 
L 353 4331 
L 353 4666 
L 2209 4666 
Q 3416 4666 4089 4050 
Q 4763 3434 4763 2338 
Q 4763 1238 4088 619 
Q 3413 0 2209 0 
L 353 0 
z
" transform="scale(0.015625)"/>
      <path id="DejaVuSerif-69" d="M 622 4353 
Q 622 4497 726 4603 
Q 831 4709 978 4709 
Q 1122 4709 1226 4603 
Q 1331 4497 1331 4353 
Q 1331 4206 1228 4103 
Q 1125 4000 978 4000 
Q 831 4000 726 4103 
Q 622 4206 622 4353 
z
M 1356 331 
L 1900 331 
L 1900 0 
L 231 0 
L 231 331 
L 781 331 
L 781 2988 
L 231 2988 
L 231 3322 
L 1356 3322 
L 1356 331 
z
" transform="scale(0.015625)"/>
      <path id="DejaVuSerif-74" d="M 691 2988 
L 184 2988 
L 184 3322 
L 691 3322 
L 691 4353 
L 1269 4353 
L 1269 3322 
L 2350 3322 
L 2350 2988 
L 1269 2988 
L 1269 878 
Q 1269 456 1350 337 
Q 1431 219 1650 219 
Q 1875 219 1978 351 
Q 2081 484 2088 781 
L 2522 781 
Q 2497 328 2275 118 
Q 2053 -91 1600 -91 
Q 1103 -91 897 129 
Q 691 350 691 878 
L 691 2988 
z
" transform="scale(0.015625)"/>
      <path id="DejaVuSerif-6e" d="M 263 0 
L 263 331 
L 781 331 
L 781 2988 
L 231 2988 
L 231 3322 
L 1356 3322 
L 1356 2731 
Q 1516 3069 1770 3241 
Q 2025 3413 2363 3413 
Q 2913 3413 3172 3097 
Q 3431 2781 3431 2113 
L 3431 331 
L 3944 331 
L 3944 0 
L 2356 0 
L 2356 331 
L 2853 331 
L 2853 1931 
Q 2853 2541 2703 2767 
Q 2553 2994 2175 2994 
Q 1775 2994 1565 2701 
Q 1356 2409 1356 1850 
L 1356 331 
L 1856 331 
L 1856 0 
L 263 0 
z
" transform="scale(0.015625)"/>
      <path id="DejaVuSerif-2d" d="M 281 1959 
L 1881 1959 
L 1881 1472 
L 281 1472 
L 281 1959 
z
" transform="scale(0.015625)"/>
      <path id="DejaVuSerif-77" d="M 3072 3322 
L 3922 728 
L 4672 2988 
L 4191 2988 
L 4191 3322 
L 5394 3322 
L 5394 2988 
L 5025 2988 
L 4038 0 
L 3559 0 
L 2741 2484 
L 1919 0 
L 1459 0 
L 475 2988 
L 103 2988 
L 103 3322 
L 1606 3322 
L 1606 2988 
L 1069 2988 
L 1813 728 
L 2669 3322 
L 3072 3322 
z
" transform="scale(0.015625)"/>
      <path id="DejaVuSerif-46" d="M 353 0 
L 353 331 
L 947 331 
L 947 4331 
L 353 4331 
L 353 4666 
L 4172 4666 
L 4172 3628 
L 3788 3628 
L 3788 4281 
L 1581 4281 
L 1581 2719 
L 3175 2719 
L 3175 3303 
L 3559 3303 
L 3559 1753 
L 3175 1753 
L 3175 2338 
L 1581 2338 
L 1581 331 
L 2328 331 
L 2328 0 
L 353 0 
z
" transform="scale(0.015625)"/>
      <path id="DejaVuSerif-6b" d="M 1831 0 
L 219 0 
L 219 331 
L 738 331 
L 738 4531 
L 184 4531 
L 184 4863 
L 1313 4863 
L 1313 1697 
L 2713 2988 
L 2234 2988 
L 2234 3322 
L 3738 3322 
L 3738 2988 
L 3169 2988 
L 2181 2075 
L 3444 331 
L 3922 331 
L 3922 0 
L 2284 0 
L 2284 331 
L 2759 331 
L 1766 1697 
L 1313 1275 
L 1313 331 
L 1831 331 
L 1831 0 
z
" transform="scale(0.015625)"/>
     </defs>
     <use xlink:href="#DejaVuSerif-53"/>
     <use xlink:href="#DejaVuSerif-4e" x="68.505859"/>
     <use xlink:href="#DejaVuSerif-52" x="156.005859"/>
     <use xlink:href="#DejaVuSerif-20" x="231.298828"/>
     <use xlink:href="#DejaVuSerif-44" x="263.085938"/>
     <use xlink:href="#DejaVuSerif-69" x="343.261719"/>
     <use xlink:href="#DejaVuSerif-73" x="375.244141"/>
     <use xlink:href="#DejaVuSerif-74" x="426.5625"/>
     <use xlink:href="#DejaVuSerif-72" x="466.748047"/>
     <use xlink:href="#DejaVuSerif-69" x="514.550781"/>
     <use xlink:href="#DejaVuSerif-62" x="546.533203"/>
     <use xlink:href="#DejaVuSerif-75" x="610.546875"/>
     <use xlink:href="#DejaVuSerif-74" x="674.951172"/>
     <use xlink:href="#DejaVuSerif-69" x="715.136719"/>
     <use xlink:href="#DejaVuSerif-6f" x="747.119141"/>
     <use xlink:href="#DejaVuSerif-6e" x="807.324219"/>
     <use xlink:href="#DejaVuSerif-20" x="871.728516"/>
     <use xlink:href="#DejaVuSerif-2d" x="903.515625"/>
     <use xlink:href="#DejaVuSerif-20" x="937.304688"/>
     <use xlink:href="#DejaVuSerif-52" x="969.091797"/>
     <use xlink:href="#DejaVuSerif-61" x="1046.634766"/>
     <use xlink:href="#DejaVuSerif-77" x="1106.253906"/>
     <use xlink:href="#DejaVuSerif-20" x="1191.849609"/>
     <use xlink:href="#DejaVuSerif-61" x="1223.636719"/>
     <use xlink:href="#DejaVuSerif-6e" x="1283.255859"/>
     <use xlink:href="#DejaVuSerif-64" x="1347.660156"/>
     <use xlink:href="#DejaVuSerif-20" x="1411.673828"/>
     <use xlink:href="#DejaVuSerif-46" x="1443.460938"/>
     <use xlink:href="#DejaVuSerif-61" x="1506.095703"/>
     <use xlink:href="#DejaVuSerif-63" x="1565.714844"/>
     <use xlink:href="#DejaVuSerif-65" x="1621.720703"/>
     <use xlink:href="#DejaVuSerif-62" x="1680.900391"/>
     <use xlink:href="#DejaVuSerif-6f" x="1744.914062"/>
     <use xlink:href="#DejaVuSerif-6f" x="1805.119141"/>
     <use xlink:href="#DejaVuSerif-6b" x="1865.324219"/>
     <use xlink:href="#DejaVuSerif-20" x="1925.919922"/>
     <use xlink:href="#DejaVuSerif-44" x="1957.707031"/>
     <use xlink:href="#DejaVuSerif-65" x="2037.882812"/>
     <use xlink:href="#DejaVuSerif-6e" x="2097.0625"/>
     <use xlink:href="#DejaVuSerif-6f" x="2161.466797"/>
     <use xlink:href="#DejaVuSerif-69" x="2221.671875"/>
     <use xlink:href="#DejaVuSerif-73" x="2253.654297"/>
     <use xlink:href="#DejaVuSerif-65" x="2304.972656"/>
     <use xlink:href="#DejaVuSerif-72" x="2364.152344"/>
    </g>
   </g>
   <g id="legend_1">
    <g id="patch_67">
     <path d="M 229.055 50.3795 
L 292.2925 50.3795 
Q 293.8925 50.3795 293.8925 48.7795 
L 293.8925 26.0945 
Q 293.8925 24.4945 292.2925 24.4945 
L 229.055 24.4945 
Q 227.455 24.4945 227.455 26.0945 
L 227.455 48.7795 
Q 227.455 50.3795 229.055 50.3795 
z
" style="fill: #ffffff; opacity: 0.8; stroke: #cccccc; stroke-linejoin: miter"/>
    </g>
    <g id="patch_68">
     <path d="M 230.655 33.77325 
L 246.655 33.77325 
L 246.655 28.17325 
L 230.655 28.17325 
z
" style="fill: #1f77b4; fill-opacity: 0.5; stroke: #000000; stroke-width: 0.777818; stroke-linejoin: miter"/>
    </g>
    <g id="text_18">
     <!-- Raw -->
     <g transform="translate(253.055 33.77325) scale(0.08 -0.08)">
      <use xlink:href="#DejaVuSerif-52"/>
      <use xlink:href="#DejaVuSerif-61" x="77.542969"/>
      <use xlink:href="#DejaVuSerif-77" x="137.162109"/>
     </g>
    </g>
    <g id="patch_69">
     <path d="M 230.655 45.51575 
L 246.655 45.51575 
L 246.655 39.91575 
L 230.655 39.91575 
z
" style="fill: #ff7f0e; fill-opacity: 0.5; stroke: #000000; stroke-width: 0.777818; stroke-linejoin: miter"/>
    </g>
    <g id="text_19">
     <!-- Denoised -->
     <g transform="translate(253.055 45.51575) scale(0.08 -0.08)">
      <use xlink:href="#DejaVuSerif-44"/>
      <use xlink:href="#DejaVuSerif-65" x="80.175781"/>
      <use xlink:href="#DejaVuSerif-6e" x="139.355469"/>
      <use xlink:href="#DejaVuSerif-6f" x="203.759766"/>
      <use xlink:href="#DejaVuSerif-69" x="263.964844"/>
      <use xlink:href="#DejaVuSerif-73" x="295.947266"/>
      <use xlink:href="#DejaVuSerif-65" x="347.265625"/>
      <use xlink:href="#DejaVuSerif-64" x="406.445312"/>
     </g>
    </g>
   </g>
  </g>
 </g>
 <defs>
  <clipPath id="pa9bf61fc31">
   <rect x="41.2125" y="20.4945" width="256.68" height="144.144"/>
  </clipPath>
 </defs>
</svg>
